G04 #@! TF.FileFunction,Legend,Top*
%FSLAX46Y46*%
G04 Gerber Fmt 4.6, Leading zero omitted, Abs format (unit mm)*
G04 Created by KiCad (PCBNEW 4.0.6) date 02/07/18 21:35:10*
%MOMM*%
%LPD*%
G01*
G04 APERTURE LIST*
%ADD10C,0.100000*%
%ADD11C,0.150000*%
%ADD12C,0.300000*%
%ADD13C,0.120000*%
G04 APERTURE END LIST*
D10*
D11*
X91211809Y-139356429D02*
X91973714Y-139356429D01*
X91592762Y-139737381D02*
X91592762Y-138975476D01*
X92926095Y-138737381D02*
X92449904Y-138737381D01*
X92402285Y-139213571D01*
X92449904Y-139165952D01*
X92545142Y-139118333D01*
X92783238Y-139118333D01*
X92878476Y-139165952D01*
X92926095Y-139213571D01*
X92973714Y-139308810D01*
X92973714Y-139546905D01*
X92926095Y-139642143D01*
X92878476Y-139689762D01*
X92783238Y-139737381D01*
X92545142Y-139737381D01*
X92449904Y-139689762D01*
X92402285Y-139642143D01*
X93259428Y-138737381D02*
X93592761Y-139737381D01*
X93926095Y-138737381D01*
X94973714Y-139451667D02*
X95449905Y-139451667D01*
X94878476Y-139737381D02*
X95211809Y-138737381D01*
X95545143Y-139737381D01*
X96068952Y-138737381D02*
X96164191Y-138737381D01*
X96259429Y-138785000D01*
X96307048Y-138832619D01*
X96354667Y-138927857D01*
X96402286Y-139118333D01*
X96402286Y-139356429D01*
X96354667Y-139546905D01*
X96307048Y-139642143D01*
X96259429Y-139689762D01*
X96164191Y-139737381D01*
X96068952Y-139737381D01*
X95973714Y-139689762D01*
X95926095Y-139642143D01*
X95878476Y-139546905D01*
X95830857Y-139356429D01*
X95830857Y-139118333D01*
X95878476Y-138927857D01*
X95926095Y-138832619D01*
X95973714Y-138785000D01*
X96068952Y-138737381D01*
X98116572Y-138785000D02*
X98021334Y-138737381D01*
X97878477Y-138737381D01*
X97735619Y-138785000D01*
X97640381Y-138880238D01*
X97592762Y-138975476D01*
X97545143Y-139165952D01*
X97545143Y-139308810D01*
X97592762Y-139499286D01*
X97640381Y-139594524D01*
X97735619Y-139689762D01*
X97878477Y-139737381D01*
X97973715Y-139737381D01*
X98116572Y-139689762D01*
X98164191Y-139642143D01*
X98164191Y-139308810D01*
X97973715Y-139308810D01*
X98592762Y-139737381D02*
X98592762Y-138737381D01*
X99164191Y-139737381D01*
X99164191Y-138737381D01*
X99640381Y-139737381D02*
X99640381Y-138737381D01*
X99878476Y-138737381D01*
X100021334Y-138785000D01*
X100116572Y-138880238D01*
X100164191Y-138975476D01*
X100211810Y-139165952D01*
X100211810Y-139308810D01*
X100164191Y-139499286D01*
X100116572Y-139594524D01*
X100021334Y-139689762D01*
X99878476Y-139737381D01*
X99640381Y-139737381D01*
D12*
X100875143Y-118059285D02*
X100875143Y-116916428D01*
X101446571Y-117487857D02*
X100303714Y-117487857D01*
X99946571Y-115487856D02*
X99946571Y-116202142D01*
X100660857Y-116273571D01*
X100589429Y-116202142D01*
X100518000Y-116059285D01*
X100518000Y-115702142D01*
X100589429Y-115559285D01*
X100660857Y-115487856D01*
X100803714Y-115416428D01*
X101160857Y-115416428D01*
X101303714Y-115487856D01*
X101375143Y-115559285D01*
X101446571Y-115702142D01*
X101446571Y-116059285D01*
X101375143Y-116202142D01*
X101303714Y-116273571D01*
X99946571Y-114987857D02*
X101446571Y-114487857D01*
X99946571Y-113987857D01*
X101018000Y-112416429D02*
X101018000Y-111702143D01*
X101446571Y-112559286D02*
X99946571Y-112059286D01*
X101446571Y-111559286D01*
X101446571Y-110273572D02*
X101446571Y-111130715D01*
X101446571Y-110702143D02*
X99946571Y-110702143D01*
X100160857Y-110845000D01*
X100303714Y-110987858D01*
X100375143Y-111130715D01*
X100018000Y-107702144D02*
X99946571Y-107845001D01*
X99946571Y-108059287D01*
X100018000Y-108273572D01*
X100160857Y-108416430D01*
X100303714Y-108487858D01*
X100589429Y-108559287D01*
X100803714Y-108559287D01*
X101089429Y-108487858D01*
X101232286Y-108416430D01*
X101375143Y-108273572D01*
X101446571Y-108059287D01*
X101446571Y-107916430D01*
X101375143Y-107702144D01*
X101303714Y-107630715D01*
X100803714Y-107630715D01*
X100803714Y-107916430D01*
X101446571Y-106987858D02*
X99946571Y-106987858D01*
X101446571Y-106130715D01*
X99946571Y-106130715D01*
X101446571Y-105416429D02*
X99946571Y-105416429D01*
X99946571Y-105059286D01*
X100018000Y-104845001D01*
X100160857Y-104702143D01*
X100303714Y-104630715D01*
X100589429Y-104559286D01*
X100803714Y-104559286D01*
X101089429Y-104630715D01*
X101232286Y-104702143D01*
X101375143Y-104845001D01*
X101446571Y-105059286D01*
X101446571Y-105416429D01*
X100875143Y-133299285D02*
X100875143Y-132156428D01*
X101446571Y-132727857D02*
X100303714Y-132727857D01*
X99946571Y-130727856D02*
X99946571Y-131442142D01*
X100660857Y-131513571D01*
X100589429Y-131442142D01*
X100518000Y-131299285D01*
X100518000Y-130942142D01*
X100589429Y-130799285D01*
X100660857Y-130727856D01*
X100803714Y-130656428D01*
X101160857Y-130656428D01*
X101303714Y-130727856D01*
X101375143Y-130799285D01*
X101446571Y-130942142D01*
X101446571Y-131299285D01*
X101375143Y-131442142D01*
X101303714Y-131513571D01*
X99946571Y-130227857D02*
X101446571Y-129727857D01*
X99946571Y-129227857D01*
X101018000Y-127656429D02*
X101018000Y-126942143D01*
X101446571Y-127799286D02*
X99946571Y-127299286D01*
X101446571Y-126799286D01*
X99946571Y-126013572D02*
X99946571Y-125870715D01*
X100018000Y-125727858D01*
X100089429Y-125656429D01*
X100232286Y-125585000D01*
X100518000Y-125513572D01*
X100875143Y-125513572D01*
X101160857Y-125585000D01*
X101303714Y-125656429D01*
X101375143Y-125727858D01*
X101446571Y-125870715D01*
X101446571Y-126013572D01*
X101375143Y-126156429D01*
X101303714Y-126227858D01*
X101160857Y-126299286D01*
X100875143Y-126370715D01*
X100518000Y-126370715D01*
X100232286Y-126299286D01*
X100089429Y-126227858D01*
X100018000Y-126156429D01*
X99946571Y-126013572D01*
X100018000Y-122942144D02*
X99946571Y-123085001D01*
X99946571Y-123299287D01*
X100018000Y-123513572D01*
X100160857Y-123656430D01*
X100303714Y-123727858D01*
X100589429Y-123799287D01*
X100803714Y-123799287D01*
X101089429Y-123727858D01*
X101232286Y-123656430D01*
X101375143Y-123513572D01*
X101446571Y-123299287D01*
X101446571Y-123156430D01*
X101375143Y-122942144D01*
X101303714Y-122870715D01*
X100803714Y-122870715D01*
X100803714Y-123156430D01*
X101446571Y-122227858D02*
X99946571Y-122227858D01*
X101446571Y-121370715D01*
X99946571Y-121370715D01*
X101446571Y-120656429D02*
X99946571Y-120656429D01*
X99946571Y-120299286D01*
X100018000Y-120085001D01*
X100160857Y-119942143D01*
X100303714Y-119870715D01*
X100589429Y-119799286D01*
X100803714Y-119799286D01*
X101089429Y-119870715D01*
X101232286Y-119942143D01*
X101375143Y-120085001D01*
X101446571Y-120299286D01*
X101446571Y-120656429D01*
D11*
X90576809Y-98716429D02*
X91338714Y-98716429D01*
X90957762Y-99097381D02*
X90957762Y-98335476D01*
X92291095Y-98097381D02*
X91814904Y-98097381D01*
X91767285Y-98573571D01*
X91814904Y-98525952D01*
X91910142Y-98478333D01*
X92148238Y-98478333D01*
X92243476Y-98525952D01*
X92291095Y-98573571D01*
X92338714Y-98668810D01*
X92338714Y-98906905D01*
X92291095Y-99002143D01*
X92243476Y-99049762D01*
X92148238Y-99097381D01*
X91910142Y-99097381D01*
X91814904Y-99049762D01*
X91767285Y-99002143D01*
X92624428Y-98097381D02*
X92957761Y-99097381D01*
X93291095Y-98097381D01*
X94338714Y-98811667D02*
X94814905Y-98811667D01*
X94243476Y-99097381D02*
X94576809Y-98097381D01*
X94910143Y-99097381D01*
X95767286Y-99097381D02*
X95195857Y-99097381D01*
X95481571Y-99097381D02*
X95481571Y-98097381D01*
X95386333Y-98240238D01*
X95291095Y-98335476D01*
X95195857Y-98383095D01*
X97481572Y-98145000D02*
X97386334Y-98097381D01*
X97243477Y-98097381D01*
X97100619Y-98145000D01*
X97005381Y-98240238D01*
X96957762Y-98335476D01*
X96910143Y-98525952D01*
X96910143Y-98668810D01*
X96957762Y-98859286D01*
X97005381Y-98954524D01*
X97100619Y-99049762D01*
X97243477Y-99097381D01*
X97338715Y-99097381D01*
X97481572Y-99049762D01*
X97529191Y-99002143D01*
X97529191Y-98668810D01*
X97338715Y-98668810D01*
X97957762Y-99097381D02*
X97957762Y-98097381D01*
X98529191Y-99097381D01*
X98529191Y-98097381D01*
X99005381Y-99097381D02*
X99005381Y-98097381D01*
X99243476Y-98097381D01*
X99386334Y-98145000D01*
X99481572Y-98240238D01*
X99529191Y-98335476D01*
X99576810Y-98525952D01*
X99576810Y-98668810D01*
X99529191Y-98859286D01*
X99481572Y-98954524D01*
X99386334Y-99049762D01*
X99243476Y-99097381D01*
X99005381Y-99097381D01*
X64708000Y-107446904D02*
X64660381Y-107542142D01*
X64660381Y-107684999D01*
X64708000Y-107827857D01*
X64803238Y-107923095D01*
X64898476Y-107970714D01*
X65088952Y-108018333D01*
X65231810Y-108018333D01*
X65422286Y-107970714D01*
X65517524Y-107923095D01*
X65612762Y-107827857D01*
X65660381Y-107684999D01*
X65660381Y-107589761D01*
X65612762Y-107446904D01*
X65565143Y-107399285D01*
X65231810Y-107399285D01*
X65231810Y-107589761D01*
X65660381Y-106970714D02*
X64660381Y-106970714D01*
X65660381Y-106399285D01*
X64660381Y-106399285D01*
X65660381Y-105923095D02*
X64660381Y-105923095D01*
X64660381Y-105685000D01*
X64708000Y-105542142D01*
X64803238Y-105446904D01*
X64898476Y-105399285D01*
X65088952Y-105351666D01*
X65231810Y-105351666D01*
X65422286Y-105399285D01*
X65517524Y-105446904D01*
X65612762Y-105542142D01*
X65660381Y-105685000D01*
X65660381Y-105923095D01*
X65279429Y-104161190D02*
X65279429Y-103399285D01*
X65660381Y-103780237D02*
X64898476Y-103780237D01*
X64660381Y-102446904D02*
X64660381Y-102923095D01*
X65136571Y-102970714D01*
X65088952Y-102923095D01*
X65041333Y-102827857D01*
X65041333Y-102589761D01*
X65088952Y-102494523D01*
X65136571Y-102446904D01*
X65231810Y-102399285D01*
X65469905Y-102399285D01*
X65565143Y-102446904D01*
X65612762Y-102494523D01*
X65660381Y-102589761D01*
X65660381Y-102827857D01*
X65612762Y-102923095D01*
X65565143Y-102970714D01*
X64660381Y-102113571D02*
X65660381Y-101780238D01*
X64660381Y-101446904D01*
X65612762Y-100399285D02*
X65660381Y-100256428D01*
X65660381Y-100018332D01*
X65612762Y-99923094D01*
X65565143Y-99875475D01*
X65469905Y-99827856D01*
X65374667Y-99827856D01*
X65279429Y-99875475D01*
X65231810Y-99923094D01*
X65184190Y-100018332D01*
X65136571Y-100208809D01*
X65088952Y-100304047D01*
X65041333Y-100351666D01*
X64946095Y-100399285D01*
X64850857Y-100399285D01*
X64755619Y-100351666D01*
X64708000Y-100304047D01*
X64660381Y-100208809D01*
X64660381Y-99970713D01*
X64708000Y-99827856D01*
X65660381Y-99399285D02*
X64660381Y-99399285D01*
X64708000Y-98399285D02*
X64660381Y-98494523D01*
X64660381Y-98637380D01*
X64708000Y-98780238D01*
X64803238Y-98875476D01*
X64898476Y-98923095D01*
X65088952Y-98970714D01*
X65231810Y-98970714D01*
X65422286Y-98923095D01*
X65517524Y-98875476D01*
X65612762Y-98780238D01*
X65660381Y-98637380D01*
X65660381Y-98542142D01*
X65612762Y-98399285D01*
X65565143Y-98351666D01*
X65231810Y-98351666D01*
X65231810Y-98542142D01*
X69788000Y-107446904D02*
X69740381Y-107542142D01*
X69740381Y-107684999D01*
X69788000Y-107827857D01*
X69883238Y-107923095D01*
X69978476Y-107970714D01*
X70168952Y-108018333D01*
X70311810Y-108018333D01*
X70502286Y-107970714D01*
X70597524Y-107923095D01*
X70692762Y-107827857D01*
X70740381Y-107684999D01*
X70740381Y-107589761D01*
X70692762Y-107446904D01*
X70645143Y-107399285D01*
X70311810Y-107399285D01*
X70311810Y-107589761D01*
X70740381Y-106970714D02*
X69740381Y-106970714D01*
X70740381Y-106399285D01*
X69740381Y-106399285D01*
X70740381Y-105923095D02*
X69740381Y-105923095D01*
X69740381Y-105685000D01*
X69788000Y-105542142D01*
X69883238Y-105446904D01*
X69978476Y-105399285D01*
X70168952Y-105351666D01*
X70311810Y-105351666D01*
X70502286Y-105399285D01*
X70597524Y-105446904D01*
X70692762Y-105542142D01*
X70740381Y-105685000D01*
X70740381Y-105923095D01*
X70359429Y-104161190D02*
X70359429Y-103399285D01*
X70740381Y-103780237D02*
X69978476Y-103780237D01*
X69740381Y-102446904D02*
X69740381Y-102923095D01*
X70216571Y-102970714D01*
X70168952Y-102923095D01*
X70121333Y-102827857D01*
X70121333Y-102589761D01*
X70168952Y-102494523D01*
X70216571Y-102446904D01*
X70311810Y-102399285D01*
X70549905Y-102399285D01*
X70645143Y-102446904D01*
X70692762Y-102494523D01*
X70740381Y-102589761D01*
X70740381Y-102827857D01*
X70692762Y-102923095D01*
X70645143Y-102970714D01*
X69740381Y-102113571D02*
X70740381Y-101780238D01*
X69740381Y-101446904D01*
X70692762Y-100399285D02*
X70740381Y-100256428D01*
X70740381Y-100018332D01*
X70692762Y-99923094D01*
X70645143Y-99875475D01*
X70549905Y-99827856D01*
X70454667Y-99827856D01*
X70359429Y-99875475D01*
X70311810Y-99923094D01*
X70264190Y-100018332D01*
X70216571Y-100208809D01*
X70168952Y-100304047D01*
X70121333Y-100351666D01*
X70026095Y-100399285D01*
X69930857Y-100399285D01*
X69835619Y-100351666D01*
X69788000Y-100304047D01*
X69740381Y-100208809D01*
X69740381Y-99970713D01*
X69788000Y-99827856D01*
X70740381Y-99399285D02*
X69740381Y-99399285D01*
X69788000Y-98399285D02*
X69740381Y-98494523D01*
X69740381Y-98637380D01*
X69788000Y-98780238D01*
X69883238Y-98875476D01*
X69978476Y-98923095D01*
X70168952Y-98970714D01*
X70311810Y-98970714D01*
X70502286Y-98923095D01*
X70597524Y-98875476D01*
X70692762Y-98780238D01*
X70740381Y-98637380D01*
X70740381Y-98542142D01*
X70692762Y-98399285D01*
X70645143Y-98351666D01*
X70311810Y-98351666D01*
X70311810Y-98542142D01*
X61850381Y-143539285D02*
X61850381Y-144110714D01*
X61850381Y-143825000D02*
X60850381Y-143825000D01*
X60993238Y-143920238D01*
X61088476Y-144015476D01*
X61136095Y-144110714D01*
X141211809Y-139356429D02*
X141973714Y-139356429D01*
X141592762Y-139737381D02*
X141592762Y-138975476D01*
X142926095Y-138737381D02*
X142449904Y-138737381D01*
X142402285Y-139213571D01*
X142449904Y-139165952D01*
X142545142Y-139118333D01*
X142783238Y-139118333D01*
X142878476Y-139165952D01*
X142926095Y-139213571D01*
X142973714Y-139308810D01*
X142973714Y-139546905D01*
X142926095Y-139642143D01*
X142878476Y-139689762D01*
X142783238Y-139737381D01*
X142545142Y-139737381D01*
X142449904Y-139689762D01*
X142402285Y-139642143D01*
X143259428Y-138737381D02*
X143592761Y-139737381D01*
X143926095Y-138737381D01*
X144973714Y-139451667D02*
X145449905Y-139451667D01*
X144878476Y-139737381D02*
X145211809Y-138737381D01*
X145545143Y-139737381D01*
X146068952Y-138737381D02*
X146164191Y-138737381D01*
X146259429Y-138785000D01*
X146307048Y-138832619D01*
X146354667Y-138927857D01*
X146402286Y-139118333D01*
X146402286Y-139356429D01*
X146354667Y-139546905D01*
X146307048Y-139642143D01*
X146259429Y-139689762D01*
X146164191Y-139737381D01*
X146068952Y-139737381D01*
X145973714Y-139689762D01*
X145926095Y-139642143D01*
X145878476Y-139546905D01*
X145830857Y-139356429D01*
X145830857Y-139118333D01*
X145878476Y-138927857D01*
X145926095Y-138832619D01*
X145973714Y-138785000D01*
X146068952Y-138737381D01*
X148116572Y-138785000D02*
X148021334Y-138737381D01*
X147878477Y-138737381D01*
X147735619Y-138785000D01*
X147640381Y-138880238D01*
X147592762Y-138975476D01*
X147545143Y-139165952D01*
X147545143Y-139308810D01*
X147592762Y-139499286D01*
X147640381Y-139594524D01*
X147735619Y-139689762D01*
X147878477Y-139737381D01*
X147973715Y-139737381D01*
X148116572Y-139689762D01*
X148164191Y-139642143D01*
X148164191Y-139308810D01*
X147973715Y-139308810D01*
X148592762Y-139737381D02*
X148592762Y-138737381D01*
X149164191Y-139737381D01*
X149164191Y-138737381D01*
X149640381Y-139737381D02*
X149640381Y-138737381D01*
X149878476Y-138737381D01*
X150021334Y-138785000D01*
X150116572Y-138880238D01*
X150164191Y-138975476D01*
X150211810Y-139165952D01*
X150211810Y-139308810D01*
X150164191Y-139499286D01*
X150116572Y-139594524D01*
X150021334Y-139689762D01*
X149878476Y-139737381D01*
X149640381Y-139737381D01*
D12*
X150875143Y-118059285D02*
X150875143Y-116916428D01*
X151446571Y-117487857D02*
X150303714Y-117487857D01*
X149946571Y-115487856D02*
X149946571Y-116202142D01*
X150660857Y-116273571D01*
X150589429Y-116202142D01*
X150518000Y-116059285D01*
X150518000Y-115702142D01*
X150589429Y-115559285D01*
X150660857Y-115487856D01*
X150803714Y-115416428D01*
X151160857Y-115416428D01*
X151303714Y-115487856D01*
X151375143Y-115559285D01*
X151446571Y-115702142D01*
X151446571Y-116059285D01*
X151375143Y-116202142D01*
X151303714Y-116273571D01*
X149946571Y-114987857D02*
X151446571Y-114487857D01*
X149946571Y-113987857D01*
X151018000Y-112416429D02*
X151018000Y-111702143D01*
X151446571Y-112559286D02*
X149946571Y-112059286D01*
X151446571Y-111559286D01*
X151446571Y-110273572D02*
X151446571Y-111130715D01*
X151446571Y-110702143D02*
X149946571Y-110702143D01*
X150160857Y-110845000D01*
X150303714Y-110987858D01*
X150375143Y-111130715D01*
X150018000Y-107702144D02*
X149946571Y-107845001D01*
X149946571Y-108059287D01*
X150018000Y-108273572D01*
X150160857Y-108416430D01*
X150303714Y-108487858D01*
X150589429Y-108559287D01*
X150803714Y-108559287D01*
X151089429Y-108487858D01*
X151232286Y-108416430D01*
X151375143Y-108273572D01*
X151446571Y-108059287D01*
X151446571Y-107916430D01*
X151375143Y-107702144D01*
X151303714Y-107630715D01*
X150803714Y-107630715D01*
X150803714Y-107916430D01*
X151446571Y-106987858D02*
X149946571Y-106987858D01*
X151446571Y-106130715D01*
X149946571Y-106130715D01*
X151446571Y-105416429D02*
X149946571Y-105416429D01*
X149946571Y-105059286D01*
X150018000Y-104845001D01*
X150160857Y-104702143D01*
X150303714Y-104630715D01*
X150589429Y-104559286D01*
X150803714Y-104559286D01*
X151089429Y-104630715D01*
X151232286Y-104702143D01*
X151375143Y-104845001D01*
X151446571Y-105059286D01*
X151446571Y-105416429D01*
X150875143Y-133299285D02*
X150875143Y-132156428D01*
X151446571Y-132727857D02*
X150303714Y-132727857D01*
X149946571Y-130727856D02*
X149946571Y-131442142D01*
X150660857Y-131513571D01*
X150589429Y-131442142D01*
X150518000Y-131299285D01*
X150518000Y-130942142D01*
X150589429Y-130799285D01*
X150660857Y-130727856D01*
X150803714Y-130656428D01*
X151160857Y-130656428D01*
X151303714Y-130727856D01*
X151375143Y-130799285D01*
X151446571Y-130942142D01*
X151446571Y-131299285D01*
X151375143Y-131442142D01*
X151303714Y-131513571D01*
X149946571Y-130227857D02*
X151446571Y-129727857D01*
X149946571Y-129227857D01*
X151018000Y-127656429D02*
X151018000Y-126942143D01*
X151446571Y-127799286D02*
X149946571Y-127299286D01*
X151446571Y-126799286D01*
X149946571Y-126013572D02*
X149946571Y-125870715D01*
X150018000Y-125727858D01*
X150089429Y-125656429D01*
X150232286Y-125585000D01*
X150518000Y-125513572D01*
X150875143Y-125513572D01*
X151160857Y-125585000D01*
X151303714Y-125656429D01*
X151375143Y-125727858D01*
X151446571Y-125870715D01*
X151446571Y-126013572D01*
X151375143Y-126156429D01*
X151303714Y-126227858D01*
X151160857Y-126299286D01*
X150875143Y-126370715D01*
X150518000Y-126370715D01*
X150232286Y-126299286D01*
X150089429Y-126227858D01*
X150018000Y-126156429D01*
X149946571Y-126013572D01*
X150018000Y-122942144D02*
X149946571Y-123085001D01*
X149946571Y-123299287D01*
X150018000Y-123513572D01*
X150160857Y-123656430D01*
X150303714Y-123727858D01*
X150589429Y-123799287D01*
X150803714Y-123799287D01*
X151089429Y-123727858D01*
X151232286Y-123656430D01*
X151375143Y-123513572D01*
X151446571Y-123299287D01*
X151446571Y-123156430D01*
X151375143Y-122942144D01*
X151303714Y-122870715D01*
X150803714Y-122870715D01*
X150803714Y-123156430D01*
X151446571Y-122227858D02*
X149946571Y-122227858D01*
X151446571Y-121370715D01*
X149946571Y-121370715D01*
X151446571Y-120656429D02*
X149946571Y-120656429D01*
X149946571Y-120299286D01*
X150018000Y-120085001D01*
X150160857Y-119942143D01*
X150303714Y-119870715D01*
X150589429Y-119799286D01*
X150803714Y-119799286D01*
X151089429Y-119870715D01*
X151232286Y-119942143D01*
X151375143Y-120085001D01*
X151446571Y-120299286D01*
X151446571Y-120656429D01*
D11*
X140576809Y-98716429D02*
X141338714Y-98716429D01*
X140957762Y-99097381D02*
X140957762Y-98335476D01*
X142291095Y-98097381D02*
X141814904Y-98097381D01*
X141767285Y-98573571D01*
X141814904Y-98525952D01*
X141910142Y-98478333D01*
X142148238Y-98478333D01*
X142243476Y-98525952D01*
X142291095Y-98573571D01*
X142338714Y-98668810D01*
X142338714Y-98906905D01*
X142291095Y-99002143D01*
X142243476Y-99049762D01*
X142148238Y-99097381D01*
X141910142Y-99097381D01*
X141814904Y-99049762D01*
X141767285Y-99002143D01*
X142624428Y-98097381D02*
X142957761Y-99097381D01*
X143291095Y-98097381D01*
X144338714Y-98811667D02*
X144814905Y-98811667D01*
X144243476Y-99097381D02*
X144576809Y-98097381D01*
X144910143Y-99097381D01*
X145767286Y-99097381D02*
X145195857Y-99097381D01*
X145481571Y-99097381D02*
X145481571Y-98097381D01*
X145386333Y-98240238D01*
X145291095Y-98335476D01*
X145195857Y-98383095D01*
X147481572Y-98145000D02*
X147386334Y-98097381D01*
X147243477Y-98097381D01*
X147100619Y-98145000D01*
X147005381Y-98240238D01*
X146957762Y-98335476D01*
X146910143Y-98525952D01*
X146910143Y-98668810D01*
X146957762Y-98859286D01*
X147005381Y-98954524D01*
X147100619Y-99049762D01*
X147243477Y-99097381D01*
X147338715Y-99097381D01*
X147481572Y-99049762D01*
X147529191Y-99002143D01*
X147529191Y-98668810D01*
X147338715Y-98668810D01*
X147957762Y-99097381D02*
X147957762Y-98097381D01*
X148529191Y-99097381D01*
X148529191Y-98097381D01*
X149005381Y-99097381D02*
X149005381Y-98097381D01*
X149243476Y-98097381D01*
X149386334Y-98145000D01*
X149481572Y-98240238D01*
X149529191Y-98335476D01*
X149576810Y-98525952D01*
X149576810Y-98668810D01*
X149529191Y-98859286D01*
X149481572Y-98954524D01*
X149386334Y-99049762D01*
X149243476Y-99097381D01*
X149005381Y-99097381D01*
X114708000Y-107446904D02*
X114660381Y-107542142D01*
X114660381Y-107684999D01*
X114708000Y-107827857D01*
X114803238Y-107923095D01*
X114898476Y-107970714D01*
X115088952Y-108018333D01*
X115231810Y-108018333D01*
X115422286Y-107970714D01*
X115517524Y-107923095D01*
X115612762Y-107827857D01*
X115660381Y-107684999D01*
X115660381Y-107589761D01*
X115612762Y-107446904D01*
X115565143Y-107399285D01*
X115231810Y-107399285D01*
X115231810Y-107589761D01*
X115660381Y-106970714D02*
X114660381Y-106970714D01*
X115660381Y-106399285D01*
X114660381Y-106399285D01*
X115660381Y-105923095D02*
X114660381Y-105923095D01*
X114660381Y-105685000D01*
X114708000Y-105542142D01*
X114803238Y-105446904D01*
X114898476Y-105399285D01*
X115088952Y-105351666D01*
X115231810Y-105351666D01*
X115422286Y-105399285D01*
X115517524Y-105446904D01*
X115612762Y-105542142D01*
X115660381Y-105685000D01*
X115660381Y-105923095D01*
X115279429Y-104161190D02*
X115279429Y-103399285D01*
X115660381Y-103780237D02*
X114898476Y-103780237D01*
X114660381Y-102446904D02*
X114660381Y-102923095D01*
X115136571Y-102970714D01*
X115088952Y-102923095D01*
X115041333Y-102827857D01*
X115041333Y-102589761D01*
X115088952Y-102494523D01*
X115136571Y-102446904D01*
X115231810Y-102399285D01*
X115469905Y-102399285D01*
X115565143Y-102446904D01*
X115612762Y-102494523D01*
X115660381Y-102589761D01*
X115660381Y-102827857D01*
X115612762Y-102923095D01*
X115565143Y-102970714D01*
X114660381Y-102113571D02*
X115660381Y-101780238D01*
X114660381Y-101446904D01*
X115612762Y-100399285D02*
X115660381Y-100256428D01*
X115660381Y-100018332D01*
X115612762Y-99923094D01*
X115565143Y-99875475D01*
X115469905Y-99827856D01*
X115374667Y-99827856D01*
X115279429Y-99875475D01*
X115231810Y-99923094D01*
X115184190Y-100018332D01*
X115136571Y-100208809D01*
X115088952Y-100304047D01*
X115041333Y-100351666D01*
X114946095Y-100399285D01*
X114850857Y-100399285D01*
X114755619Y-100351666D01*
X114708000Y-100304047D01*
X114660381Y-100208809D01*
X114660381Y-99970713D01*
X114708000Y-99827856D01*
X115660381Y-99399285D02*
X114660381Y-99399285D01*
X114708000Y-98399285D02*
X114660381Y-98494523D01*
X114660381Y-98637380D01*
X114708000Y-98780238D01*
X114803238Y-98875476D01*
X114898476Y-98923095D01*
X115088952Y-98970714D01*
X115231810Y-98970714D01*
X115422286Y-98923095D01*
X115517524Y-98875476D01*
X115612762Y-98780238D01*
X115660381Y-98637380D01*
X115660381Y-98542142D01*
X115612762Y-98399285D01*
X115565143Y-98351666D01*
X115231810Y-98351666D01*
X115231810Y-98542142D01*
X119788000Y-107446904D02*
X119740381Y-107542142D01*
X119740381Y-107684999D01*
X119788000Y-107827857D01*
X119883238Y-107923095D01*
X119978476Y-107970714D01*
X120168952Y-108018333D01*
X120311810Y-108018333D01*
X120502286Y-107970714D01*
X120597524Y-107923095D01*
X120692762Y-107827857D01*
X120740381Y-107684999D01*
X120740381Y-107589761D01*
X120692762Y-107446904D01*
X120645143Y-107399285D01*
X120311810Y-107399285D01*
X120311810Y-107589761D01*
X120740381Y-106970714D02*
X119740381Y-106970714D01*
X120740381Y-106399285D01*
X119740381Y-106399285D01*
X120740381Y-105923095D02*
X119740381Y-105923095D01*
X119740381Y-105685000D01*
X119788000Y-105542142D01*
X119883238Y-105446904D01*
X119978476Y-105399285D01*
X120168952Y-105351666D01*
X120311810Y-105351666D01*
X120502286Y-105399285D01*
X120597524Y-105446904D01*
X120692762Y-105542142D01*
X120740381Y-105685000D01*
X120740381Y-105923095D01*
X120359429Y-104161190D02*
X120359429Y-103399285D01*
X120740381Y-103780237D02*
X119978476Y-103780237D01*
X119740381Y-102446904D02*
X119740381Y-102923095D01*
X120216571Y-102970714D01*
X120168952Y-102923095D01*
X120121333Y-102827857D01*
X120121333Y-102589761D01*
X120168952Y-102494523D01*
X120216571Y-102446904D01*
X120311810Y-102399285D01*
X120549905Y-102399285D01*
X120645143Y-102446904D01*
X120692762Y-102494523D01*
X120740381Y-102589761D01*
X120740381Y-102827857D01*
X120692762Y-102923095D01*
X120645143Y-102970714D01*
X119740381Y-102113571D02*
X120740381Y-101780238D01*
X119740381Y-101446904D01*
X120692762Y-100399285D02*
X120740381Y-100256428D01*
X120740381Y-100018332D01*
X120692762Y-99923094D01*
X120645143Y-99875475D01*
X120549905Y-99827856D01*
X120454667Y-99827856D01*
X120359429Y-99875475D01*
X120311810Y-99923094D01*
X120264190Y-100018332D01*
X120216571Y-100208809D01*
X120168952Y-100304047D01*
X120121333Y-100351666D01*
X120026095Y-100399285D01*
X119930857Y-100399285D01*
X119835619Y-100351666D01*
X119788000Y-100304047D01*
X119740381Y-100208809D01*
X119740381Y-99970713D01*
X119788000Y-99827856D01*
X120740381Y-99399285D02*
X119740381Y-99399285D01*
X119788000Y-98399285D02*
X119740381Y-98494523D01*
X119740381Y-98637380D01*
X119788000Y-98780238D01*
X119883238Y-98875476D01*
X119978476Y-98923095D01*
X120168952Y-98970714D01*
X120311810Y-98970714D01*
X120502286Y-98923095D01*
X120597524Y-98875476D01*
X120692762Y-98780238D01*
X120740381Y-98637380D01*
X120740381Y-98542142D01*
X120692762Y-98399285D01*
X120645143Y-98351666D01*
X120311810Y-98351666D01*
X120311810Y-98542142D01*
X111850381Y-143539285D02*
X111850381Y-144110714D01*
X111850381Y-143825000D02*
X110850381Y-143825000D01*
X110993238Y-143920238D01*
X111088476Y-144015476D01*
X111136095Y-144110714D01*
X91211809Y-89356429D02*
X91973714Y-89356429D01*
X91592762Y-89737381D02*
X91592762Y-88975476D01*
X92926095Y-88737381D02*
X92449904Y-88737381D01*
X92402285Y-89213571D01*
X92449904Y-89165952D01*
X92545142Y-89118333D01*
X92783238Y-89118333D01*
X92878476Y-89165952D01*
X92926095Y-89213571D01*
X92973714Y-89308810D01*
X92973714Y-89546905D01*
X92926095Y-89642143D01*
X92878476Y-89689762D01*
X92783238Y-89737381D01*
X92545142Y-89737381D01*
X92449904Y-89689762D01*
X92402285Y-89642143D01*
X93259428Y-88737381D02*
X93592761Y-89737381D01*
X93926095Y-88737381D01*
X94973714Y-89451667D02*
X95449905Y-89451667D01*
X94878476Y-89737381D02*
X95211809Y-88737381D01*
X95545143Y-89737381D01*
X96068952Y-88737381D02*
X96164191Y-88737381D01*
X96259429Y-88785000D01*
X96307048Y-88832619D01*
X96354667Y-88927857D01*
X96402286Y-89118333D01*
X96402286Y-89356429D01*
X96354667Y-89546905D01*
X96307048Y-89642143D01*
X96259429Y-89689762D01*
X96164191Y-89737381D01*
X96068952Y-89737381D01*
X95973714Y-89689762D01*
X95926095Y-89642143D01*
X95878476Y-89546905D01*
X95830857Y-89356429D01*
X95830857Y-89118333D01*
X95878476Y-88927857D01*
X95926095Y-88832619D01*
X95973714Y-88785000D01*
X96068952Y-88737381D01*
X98116572Y-88785000D02*
X98021334Y-88737381D01*
X97878477Y-88737381D01*
X97735619Y-88785000D01*
X97640381Y-88880238D01*
X97592762Y-88975476D01*
X97545143Y-89165952D01*
X97545143Y-89308810D01*
X97592762Y-89499286D01*
X97640381Y-89594524D01*
X97735619Y-89689762D01*
X97878477Y-89737381D01*
X97973715Y-89737381D01*
X98116572Y-89689762D01*
X98164191Y-89642143D01*
X98164191Y-89308810D01*
X97973715Y-89308810D01*
X98592762Y-89737381D02*
X98592762Y-88737381D01*
X99164191Y-89737381D01*
X99164191Y-88737381D01*
X99640381Y-89737381D02*
X99640381Y-88737381D01*
X99878476Y-88737381D01*
X100021334Y-88785000D01*
X100116572Y-88880238D01*
X100164191Y-88975476D01*
X100211810Y-89165952D01*
X100211810Y-89308810D01*
X100164191Y-89499286D01*
X100116572Y-89594524D01*
X100021334Y-89689762D01*
X99878476Y-89737381D01*
X99640381Y-89737381D01*
D12*
X100875143Y-68059285D02*
X100875143Y-66916428D01*
X101446571Y-67487857D02*
X100303714Y-67487857D01*
X99946571Y-65487856D02*
X99946571Y-66202142D01*
X100660857Y-66273571D01*
X100589429Y-66202142D01*
X100518000Y-66059285D01*
X100518000Y-65702142D01*
X100589429Y-65559285D01*
X100660857Y-65487856D01*
X100803714Y-65416428D01*
X101160857Y-65416428D01*
X101303714Y-65487856D01*
X101375143Y-65559285D01*
X101446571Y-65702142D01*
X101446571Y-66059285D01*
X101375143Y-66202142D01*
X101303714Y-66273571D01*
X99946571Y-64987857D02*
X101446571Y-64487857D01*
X99946571Y-63987857D01*
X101018000Y-62416429D02*
X101018000Y-61702143D01*
X101446571Y-62559286D02*
X99946571Y-62059286D01*
X101446571Y-61559286D01*
X101446571Y-60273572D02*
X101446571Y-61130715D01*
X101446571Y-60702143D02*
X99946571Y-60702143D01*
X100160857Y-60845000D01*
X100303714Y-60987858D01*
X100375143Y-61130715D01*
X100018000Y-57702144D02*
X99946571Y-57845001D01*
X99946571Y-58059287D01*
X100018000Y-58273572D01*
X100160857Y-58416430D01*
X100303714Y-58487858D01*
X100589429Y-58559287D01*
X100803714Y-58559287D01*
X101089429Y-58487858D01*
X101232286Y-58416430D01*
X101375143Y-58273572D01*
X101446571Y-58059287D01*
X101446571Y-57916430D01*
X101375143Y-57702144D01*
X101303714Y-57630715D01*
X100803714Y-57630715D01*
X100803714Y-57916430D01*
X101446571Y-56987858D02*
X99946571Y-56987858D01*
X101446571Y-56130715D01*
X99946571Y-56130715D01*
X101446571Y-55416429D02*
X99946571Y-55416429D01*
X99946571Y-55059286D01*
X100018000Y-54845001D01*
X100160857Y-54702143D01*
X100303714Y-54630715D01*
X100589429Y-54559286D01*
X100803714Y-54559286D01*
X101089429Y-54630715D01*
X101232286Y-54702143D01*
X101375143Y-54845001D01*
X101446571Y-55059286D01*
X101446571Y-55416429D01*
X100875143Y-83299285D02*
X100875143Y-82156428D01*
X101446571Y-82727857D02*
X100303714Y-82727857D01*
X99946571Y-80727856D02*
X99946571Y-81442142D01*
X100660857Y-81513571D01*
X100589429Y-81442142D01*
X100518000Y-81299285D01*
X100518000Y-80942142D01*
X100589429Y-80799285D01*
X100660857Y-80727856D01*
X100803714Y-80656428D01*
X101160857Y-80656428D01*
X101303714Y-80727856D01*
X101375143Y-80799285D01*
X101446571Y-80942142D01*
X101446571Y-81299285D01*
X101375143Y-81442142D01*
X101303714Y-81513571D01*
X99946571Y-80227857D02*
X101446571Y-79727857D01*
X99946571Y-79227857D01*
X101018000Y-77656429D02*
X101018000Y-76942143D01*
X101446571Y-77799286D02*
X99946571Y-77299286D01*
X101446571Y-76799286D01*
X99946571Y-76013572D02*
X99946571Y-75870715D01*
X100018000Y-75727858D01*
X100089429Y-75656429D01*
X100232286Y-75585000D01*
X100518000Y-75513572D01*
X100875143Y-75513572D01*
X101160857Y-75585000D01*
X101303714Y-75656429D01*
X101375143Y-75727858D01*
X101446571Y-75870715D01*
X101446571Y-76013572D01*
X101375143Y-76156429D01*
X101303714Y-76227858D01*
X101160857Y-76299286D01*
X100875143Y-76370715D01*
X100518000Y-76370715D01*
X100232286Y-76299286D01*
X100089429Y-76227858D01*
X100018000Y-76156429D01*
X99946571Y-76013572D01*
X100018000Y-72942144D02*
X99946571Y-73085001D01*
X99946571Y-73299287D01*
X100018000Y-73513572D01*
X100160857Y-73656430D01*
X100303714Y-73727858D01*
X100589429Y-73799287D01*
X100803714Y-73799287D01*
X101089429Y-73727858D01*
X101232286Y-73656430D01*
X101375143Y-73513572D01*
X101446571Y-73299287D01*
X101446571Y-73156430D01*
X101375143Y-72942144D01*
X101303714Y-72870715D01*
X100803714Y-72870715D01*
X100803714Y-73156430D01*
X101446571Y-72227858D02*
X99946571Y-72227858D01*
X101446571Y-71370715D01*
X99946571Y-71370715D01*
X101446571Y-70656429D02*
X99946571Y-70656429D01*
X99946571Y-70299286D01*
X100018000Y-70085001D01*
X100160857Y-69942143D01*
X100303714Y-69870715D01*
X100589429Y-69799286D01*
X100803714Y-69799286D01*
X101089429Y-69870715D01*
X101232286Y-69942143D01*
X101375143Y-70085001D01*
X101446571Y-70299286D01*
X101446571Y-70656429D01*
D11*
X90576809Y-48716429D02*
X91338714Y-48716429D01*
X90957762Y-49097381D02*
X90957762Y-48335476D01*
X92291095Y-48097381D02*
X91814904Y-48097381D01*
X91767285Y-48573571D01*
X91814904Y-48525952D01*
X91910142Y-48478333D01*
X92148238Y-48478333D01*
X92243476Y-48525952D01*
X92291095Y-48573571D01*
X92338714Y-48668810D01*
X92338714Y-48906905D01*
X92291095Y-49002143D01*
X92243476Y-49049762D01*
X92148238Y-49097381D01*
X91910142Y-49097381D01*
X91814904Y-49049762D01*
X91767285Y-49002143D01*
X92624428Y-48097381D02*
X92957761Y-49097381D01*
X93291095Y-48097381D01*
X94338714Y-48811667D02*
X94814905Y-48811667D01*
X94243476Y-49097381D02*
X94576809Y-48097381D01*
X94910143Y-49097381D01*
X95767286Y-49097381D02*
X95195857Y-49097381D01*
X95481571Y-49097381D02*
X95481571Y-48097381D01*
X95386333Y-48240238D01*
X95291095Y-48335476D01*
X95195857Y-48383095D01*
X97481572Y-48145000D02*
X97386334Y-48097381D01*
X97243477Y-48097381D01*
X97100619Y-48145000D01*
X97005381Y-48240238D01*
X96957762Y-48335476D01*
X96910143Y-48525952D01*
X96910143Y-48668810D01*
X96957762Y-48859286D01*
X97005381Y-48954524D01*
X97100619Y-49049762D01*
X97243477Y-49097381D01*
X97338715Y-49097381D01*
X97481572Y-49049762D01*
X97529191Y-49002143D01*
X97529191Y-48668810D01*
X97338715Y-48668810D01*
X97957762Y-49097381D02*
X97957762Y-48097381D01*
X98529191Y-49097381D01*
X98529191Y-48097381D01*
X99005381Y-49097381D02*
X99005381Y-48097381D01*
X99243476Y-48097381D01*
X99386334Y-48145000D01*
X99481572Y-48240238D01*
X99529191Y-48335476D01*
X99576810Y-48525952D01*
X99576810Y-48668810D01*
X99529191Y-48859286D01*
X99481572Y-48954524D01*
X99386334Y-49049762D01*
X99243476Y-49097381D01*
X99005381Y-49097381D01*
X64708000Y-57446904D02*
X64660381Y-57542142D01*
X64660381Y-57684999D01*
X64708000Y-57827857D01*
X64803238Y-57923095D01*
X64898476Y-57970714D01*
X65088952Y-58018333D01*
X65231810Y-58018333D01*
X65422286Y-57970714D01*
X65517524Y-57923095D01*
X65612762Y-57827857D01*
X65660381Y-57684999D01*
X65660381Y-57589761D01*
X65612762Y-57446904D01*
X65565143Y-57399285D01*
X65231810Y-57399285D01*
X65231810Y-57589761D01*
X65660381Y-56970714D02*
X64660381Y-56970714D01*
X65660381Y-56399285D01*
X64660381Y-56399285D01*
X65660381Y-55923095D02*
X64660381Y-55923095D01*
X64660381Y-55685000D01*
X64708000Y-55542142D01*
X64803238Y-55446904D01*
X64898476Y-55399285D01*
X65088952Y-55351666D01*
X65231810Y-55351666D01*
X65422286Y-55399285D01*
X65517524Y-55446904D01*
X65612762Y-55542142D01*
X65660381Y-55685000D01*
X65660381Y-55923095D01*
X65279429Y-54161190D02*
X65279429Y-53399285D01*
X65660381Y-53780237D02*
X64898476Y-53780237D01*
X64660381Y-52446904D02*
X64660381Y-52923095D01*
X65136571Y-52970714D01*
X65088952Y-52923095D01*
X65041333Y-52827857D01*
X65041333Y-52589761D01*
X65088952Y-52494523D01*
X65136571Y-52446904D01*
X65231810Y-52399285D01*
X65469905Y-52399285D01*
X65565143Y-52446904D01*
X65612762Y-52494523D01*
X65660381Y-52589761D01*
X65660381Y-52827857D01*
X65612762Y-52923095D01*
X65565143Y-52970714D01*
X64660381Y-52113571D02*
X65660381Y-51780238D01*
X64660381Y-51446904D01*
X65612762Y-50399285D02*
X65660381Y-50256428D01*
X65660381Y-50018332D01*
X65612762Y-49923094D01*
X65565143Y-49875475D01*
X65469905Y-49827856D01*
X65374667Y-49827856D01*
X65279429Y-49875475D01*
X65231810Y-49923094D01*
X65184190Y-50018332D01*
X65136571Y-50208809D01*
X65088952Y-50304047D01*
X65041333Y-50351666D01*
X64946095Y-50399285D01*
X64850857Y-50399285D01*
X64755619Y-50351666D01*
X64708000Y-50304047D01*
X64660381Y-50208809D01*
X64660381Y-49970713D01*
X64708000Y-49827856D01*
X65660381Y-49399285D02*
X64660381Y-49399285D01*
X64708000Y-48399285D02*
X64660381Y-48494523D01*
X64660381Y-48637380D01*
X64708000Y-48780238D01*
X64803238Y-48875476D01*
X64898476Y-48923095D01*
X65088952Y-48970714D01*
X65231810Y-48970714D01*
X65422286Y-48923095D01*
X65517524Y-48875476D01*
X65612762Y-48780238D01*
X65660381Y-48637380D01*
X65660381Y-48542142D01*
X65612762Y-48399285D01*
X65565143Y-48351666D01*
X65231810Y-48351666D01*
X65231810Y-48542142D01*
X69788000Y-57446904D02*
X69740381Y-57542142D01*
X69740381Y-57684999D01*
X69788000Y-57827857D01*
X69883238Y-57923095D01*
X69978476Y-57970714D01*
X70168952Y-58018333D01*
X70311810Y-58018333D01*
X70502286Y-57970714D01*
X70597524Y-57923095D01*
X70692762Y-57827857D01*
X70740381Y-57684999D01*
X70740381Y-57589761D01*
X70692762Y-57446904D01*
X70645143Y-57399285D01*
X70311810Y-57399285D01*
X70311810Y-57589761D01*
X70740381Y-56970714D02*
X69740381Y-56970714D01*
X70740381Y-56399285D01*
X69740381Y-56399285D01*
X70740381Y-55923095D02*
X69740381Y-55923095D01*
X69740381Y-55685000D01*
X69788000Y-55542142D01*
X69883238Y-55446904D01*
X69978476Y-55399285D01*
X70168952Y-55351666D01*
X70311810Y-55351666D01*
X70502286Y-55399285D01*
X70597524Y-55446904D01*
X70692762Y-55542142D01*
X70740381Y-55685000D01*
X70740381Y-55923095D01*
X70359429Y-54161190D02*
X70359429Y-53399285D01*
X70740381Y-53780237D02*
X69978476Y-53780237D01*
X69740381Y-52446904D02*
X69740381Y-52923095D01*
X70216571Y-52970714D01*
X70168952Y-52923095D01*
X70121333Y-52827857D01*
X70121333Y-52589761D01*
X70168952Y-52494523D01*
X70216571Y-52446904D01*
X70311810Y-52399285D01*
X70549905Y-52399285D01*
X70645143Y-52446904D01*
X70692762Y-52494523D01*
X70740381Y-52589761D01*
X70740381Y-52827857D01*
X70692762Y-52923095D01*
X70645143Y-52970714D01*
X69740381Y-52113571D02*
X70740381Y-51780238D01*
X69740381Y-51446904D01*
X70692762Y-50399285D02*
X70740381Y-50256428D01*
X70740381Y-50018332D01*
X70692762Y-49923094D01*
X70645143Y-49875475D01*
X70549905Y-49827856D01*
X70454667Y-49827856D01*
X70359429Y-49875475D01*
X70311810Y-49923094D01*
X70264190Y-50018332D01*
X70216571Y-50208809D01*
X70168952Y-50304047D01*
X70121333Y-50351666D01*
X70026095Y-50399285D01*
X69930857Y-50399285D01*
X69835619Y-50351666D01*
X69788000Y-50304047D01*
X69740381Y-50208809D01*
X69740381Y-49970713D01*
X69788000Y-49827856D01*
X70740381Y-49399285D02*
X69740381Y-49399285D01*
X69788000Y-48399285D02*
X69740381Y-48494523D01*
X69740381Y-48637380D01*
X69788000Y-48780238D01*
X69883238Y-48875476D01*
X69978476Y-48923095D01*
X70168952Y-48970714D01*
X70311810Y-48970714D01*
X70502286Y-48923095D01*
X70597524Y-48875476D01*
X70692762Y-48780238D01*
X70740381Y-48637380D01*
X70740381Y-48542142D01*
X70692762Y-48399285D01*
X70645143Y-48351666D01*
X70311810Y-48351666D01*
X70311810Y-48542142D01*
X61850381Y-93539285D02*
X61850381Y-94110714D01*
X61850381Y-93825000D02*
X60850381Y-93825000D01*
X60993238Y-93920238D01*
X61088476Y-94015476D01*
X61136095Y-94110714D01*
X141211809Y-89356429D02*
X141973714Y-89356429D01*
X141592762Y-89737381D02*
X141592762Y-88975476D01*
X142926095Y-88737381D02*
X142449904Y-88737381D01*
X142402285Y-89213571D01*
X142449904Y-89165952D01*
X142545142Y-89118333D01*
X142783238Y-89118333D01*
X142878476Y-89165952D01*
X142926095Y-89213571D01*
X142973714Y-89308810D01*
X142973714Y-89546905D01*
X142926095Y-89642143D01*
X142878476Y-89689762D01*
X142783238Y-89737381D01*
X142545142Y-89737381D01*
X142449904Y-89689762D01*
X142402285Y-89642143D01*
X143259428Y-88737381D02*
X143592761Y-89737381D01*
X143926095Y-88737381D01*
X144973714Y-89451667D02*
X145449905Y-89451667D01*
X144878476Y-89737381D02*
X145211809Y-88737381D01*
X145545143Y-89737381D01*
X146068952Y-88737381D02*
X146164191Y-88737381D01*
X146259429Y-88785000D01*
X146307048Y-88832619D01*
X146354667Y-88927857D01*
X146402286Y-89118333D01*
X146402286Y-89356429D01*
X146354667Y-89546905D01*
X146307048Y-89642143D01*
X146259429Y-89689762D01*
X146164191Y-89737381D01*
X146068952Y-89737381D01*
X145973714Y-89689762D01*
X145926095Y-89642143D01*
X145878476Y-89546905D01*
X145830857Y-89356429D01*
X145830857Y-89118333D01*
X145878476Y-88927857D01*
X145926095Y-88832619D01*
X145973714Y-88785000D01*
X146068952Y-88737381D01*
X148116572Y-88785000D02*
X148021334Y-88737381D01*
X147878477Y-88737381D01*
X147735619Y-88785000D01*
X147640381Y-88880238D01*
X147592762Y-88975476D01*
X147545143Y-89165952D01*
X147545143Y-89308810D01*
X147592762Y-89499286D01*
X147640381Y-89594524D01*
X147735619Y-89689762D01*
X147878477Y-89737381D01*
X147973715Y-89737381D01*
X148116572Y-89689762D01*
X148164191Y-89642143D01*
X148164191Y-89308810D01*
X147973715Y-89308810D01*
X148592762Y-89737381D02*
X148592762Y-88737381D01*
X149164191Y-89737381D01*
X149164191Y-88737381D01*
X149640381Y-89737381D02*
X149640381Y-88737381D01*
X149878476Y-88737381D01*
X150021334Y-88785000D01*
X150116572Y-88880238D01*
X150164191Y-88975476D01*
X150211810Y-89165952D01*
X150211810Y-89308810D01*
X150164191Y-89499286D01*
X150116572Y-89594524D01*
X150021334Y-89689762D01*
X149878476Y-89737381D01*
X149640381Y-89737381D01*
D12*
X150875143Y-68059285D02*
X150875143Y-66916428D01*
X151446571Y-67487857D02*
X150303714Y-67487857D01*
X149946571Y-65487856D02*
X149946571Y-66202142D01*
X150660857Y-66273571D01*
X150589429Y-66202142D01*
X150518000Y-66059285D01*
X150518000Y-65702142D01*
X150589429Y-65559285D01*
X150660857Y-65487856D01*
X150803714Y-65416428D01*
X151160857Y-65416428D01*
X151303714Y-65487856D01*
X151375143Y-65559285D01*
X151446571Y-65702142D01*
X151446571Y-66059285D01*
X151375143Y-66202142D01*
X151303714Y-66273571D01*
X149946571Y-64987857D02*
X151446571Y-64487857D01*
X149946571Y-63987857D01*
X151018000Y-62416429D02*
X151018000Y-61702143D01*
X151446571Y-62559286D02*
X149946571Y-62059286D01*
X151446571Y-61559286D01*
X151446571Y-60273572D02*
X151446571Y-61130715D01*
X151446571Y-60702143D02*
X149946571Y-60702143D01*
X150160857Y-60845000D01*
X150303714Y-60987858D01*
X150375143Y-61130715D01*
X150018000Y-57702144D02*
X149946571Y-57845001D01*
X149946571Y-58059287D01*
X150018000Y-58273572D01*
X150160857Y-58416430D01*
X150303714Y-58487858D01*
X150589429Y-58559287D01*
X150803714Y-58559287D01*
X151089429Y-58487858D01*
X151232286Y-58416430D01*
X151375143Y-58273572D01*
X151446571Y-58059287D01*
X151446571Y-57916430D01*
X151375143Y-57702144D01*
X151303714Y-57630715D01*
X150803714Y-57630715D01*
X150803714Y-57916430D01*
X151446571Y-56987858D02*
X149946571Y-56987858D01*
X151446571Y-56130715D01*
X149946571Y-56130715D01*
X151446571Y-55416429D02*
X149946571Y-55416429D01*
X149946571Y-55059286D01*
X150018000Y-54845001D01*
X150160857Y-54702143D01*
X150303714Y-54630715D01*
X150589429Y-54559286D01*
X150803714Y-54559286D01*
X151089429Y-54630715D01*
X151232286Y-54702143D01*
X151375143Y-54845001D01*
X151446571Y-55059286D01*
X151446571Y-55416429D01*
X150875143Y-83299285D02*
X150875143Y-82156428D01*
X151446571Y-82727857D02*
X150303714Y-82727857D01*
X149946571Y-80727856D02*
X149946571Y-81442142D01*
X150660857Y-81513571D01*
X150589429Y-81442142D01*
X150518000Y-81299285D01*
X150518000Y-80942142D01*
X150589429Y-80799285D01*
X150660857Y-80727856D01*
X150803714Y-80656428D01*
X151160857Y-80656428D01*
X151303714Y-80727856D01*
X151375143Y-80799285D01*
X151446571Y-80942142D01*
X151446571Y-81299285D01*
X151375143Y-81442142D01*
X151303714Y-81513571D01*
X149946571Y-80227857D02*
X151446571Y-79727857D01*
X149946571Y-79227857D01*
X151018000Y-77656429D02*
X151018000Y-76942143D01*
X151446571Y-77799286D02*
X149946571Y-77299286D01*
X151446571Y-76799286D01*
X149946571Y-76013572D02*
X149946571Y-75870715D01*
X150018000Y-75727858D01*
X150089429Y-75656429D01*
X150232286Y-75585000D01*
X150518000Y-75513572D01*
X150875143Y-75513572D01*
X151160857Y-75585000D01*
X151303714Y-75656429D01*
X151375143Y-75727858D01*
X151446571Y-75870715D01*
X151446571Y-76013572D01*
X151375143Y-76156429D01*
X151303714Y-76227858D01*
X151160857Y-76299286D01*
X150875143Y-76370715D01*
X150518000Y-76370715D01*
X150232286Y-76299286D01*
X150089429Y-76227858D01*
X150018000Y-76156429D01*
X149946571Y-76013572D01*
X150018000Y-72942144D02*
X149946571Y-73085001D01*
X149946571Y-73299287D01*
X150018000Y-73513572D01*
X150160857Y-73656430D01*
X150303714Y-73727858D01*
X150589429Y-73799287D01*
X150803714Y-73799287D01*
X151089429Y-73727858D01*
X151232286Y-73656430D01*
X151375143Y-73513572D01*
X151446571Y-73299287D01*
X151446571Y-73156430D01*
X151375143Y-72942144D01*
X151303714Y-72870715D01*
X150803714Y-72870715D01*
X150803714Y-73156430D01*
X151446571Y-72227858D02*
X149946571Y-72227858D01*
X151446571Y-71370715D01*
X149946571Y-71370715D01*
X151446571Y-70656429D02*
X149946571Y-70656429D01*
X149946571Y-70299286D01*
X150018000Y-70085001D01*
X150160857Y-69942143D01*
X150303714Y-69870715D01*
X150589429Y-69799286D01*
X150803714Y-69799286D01*
X151089429Y-69870715D01*
X151232286Y-69942143D01*
X151375143Y-70085001D01*
X151446571Y-70299286D01*
X151446571Y-70656429D01*
D11*
X140576809Y-48716429D02*
X141338714Y-48716429D01*
X140957762Y-49097381D02*
X140957762Y-48335476D01*
X142291095Y-48097381D02*
X141814904Y-48097381D01*
X141767285Y-48573571D01*
X141814904Y-48525952D01*
X141910142Y-48478333D01*
X142148238Y-48478333D01*
X142243476Y-48525952D01*
X142291095Y-48573571D01*
X142338714Y-48668810D01*
X142338714Y-48906905D01*
X142291095Y-49002143D01*
X142243476Y-49049762D01*
X142148238Y-49097381D01*
X141910142Y-49097381D01*
X141814904Y-49049762D01*
X141767285Y-49002143D01*
X142624428Y-48097381D02*
X142957761Y-49097381D01*
X143291095Y-48097381D01*
X144338714Y-48811667D02*
X144814905Y-48811667D01*
X144243476Y-49097381D02*
X144576809Y-48097381D01*
X144910143Y-49097381D01*
X145767286Y-49097381D02*
X145195857Y-49097381D01*
X145481571Y-49097381D02*
X145481571Y-48097381D01*
X145386333Y-48240238D01*
X145291095Y-48335476D01*
X145195857Y-48383095D01*
X147481572Y-48145000D02*
X147386334Y-48097381D01*
X147243477Y-48097381D01*
X147100619Y-48145000D01*
X147005381Y-48240238D01*
X146957762Y-48335476D01*
X146910143Y-48525952D01*
X146910143Y-48668810D01*
X146957762Y-48859286D01*
X147005381Y-48954524D01*
X147100619Y-49049762D01*
X147243477Y-49097381D01*
X147338715Y-49097381D01*
X147481572Y-49049762D01*
X147529191Y-49002143D01*
X147529191Y-48668810D01*
X147338715Y-48668810D01*
X147957762Y-49097381D02*
X147957762Y-48097381D01*
X148529191Y-49097381D01*
X148529191Y-48097381D01*
X149005381Y-49097381D02*
X149005381Y-48097381D01*
X149243476Y-48097381D01*
X149386334Y-48145000D01*
X149481572Y-48240238D01*
X149529191Y-48335476D01*
X149576810Y-48525952D01*
X149576810Y-48668810D01*
X149529191Y-48859286D01*
X149481572Y-48954524D01*
X149386334Y-49049762D01*
X149243476Y-49097381D01*
X149005381Y-49097381D01*
X114708000Y-57446904D02*
X114660381Y-57542142D01*
X114660381Y-57684999D01*
X114708000Y-57827857D01*
X114803238Y-57923095D01*
X114898476Y-57970714D01*
X115088952Y-58018333D01*
X115231810Y-58018333D01*
X115422286Y-57970714D01*
X115517524Y-57923095D01*
X115612762Y-57827857D01*
X115660381Y-57684999D01*
X115660381Y-57589761D01*
X115612762Y-57446904D01*
X115565143Y-57399285D01*
X115231810Y-57399285D01*
X115231810Y-57589761D01*
X115660381Y-56970714D02*
X114660381Y-56970714D01*
X115660381Y-56399285D01*
X114660381Y-56399285D01*
X115660381Y-55923095D02*
X114660381Y-55923095D01*
X114660381Y-55685000D01*
X114708000Y-55542142D01*
X114803238Y-55446904D01*
X114898476Y-55399285D01*
X115088952Y-55351666D01*
X115231810Y-55351666D01*
X115422286Y-55399285D01*
X115517524Y-55446904D01*
X115612762Y-55542142D01*
X115660381Y-55685000D01*
X115660381Y-55923095D01*
X115279429Y-54161190D02*
X115279429Y-53399285D01*
X115660381Y-53780237D02*
X114898476Y-53780237D01*
X114660381Y-52446904D02*
X114660381Y-52923095D01*
X115136571Y-52970714D01*
X115088952Y-52923095D01*
X115041333Y-52827857D01*
X115041333Y-52589761D01*
X115088952Y-52494523D01*
X115136571Y-52446904D01*
X115231810Y-52399285D01*
X115469905Y-52399285D01*
X115565143Y-52446904D01*
X115612762Y-52494523D01*
X115660381Y-52589761D01*
X115660381Y-52827857D01*
X115612762Y-52923095D01*
X115565143Y-52970714D01*
X114660381Y-52113571D02*
X115660381Y-51780238D01*
X114660381Y-51446904D01*
X115612762Y-50399285D02*
X115660381Y-50256428D01*
X115660381Y-50018332D01*
X115612762Y-49923094D01*
X115565143Y-49875475D01*
X115469905Y-49827856D01*
X115374667Y-49827856D01*
X115279429Y-49875475D01*
X115231810Y-49923094D01*
X115184190Y-50018332D01*
X115136571Y-50208809D01*
X115088952Y-50304047D01*
X115041333Y-50351666D01*
X114946095Y-50399285D01*
X114850857Y-50399285D01*
X114755619Y-50351666D01*
X114708000Y-50304047D01*
X114660381Y-50208809D01*
X114660381Y-49970713D01*
X114708000Y-49827856D01*
X115660381Y-49399285D02*
X114660381Y-49399285D01*
X114708000Y-48399285D02*
X114660381Y-48494523D01*
X114660381Y-48637380D01*
X114708000Y-48780238D01*
X114803238Y-48875476D01*
X114898476Y-48923095D01*
X115088952Y-48970714D01*
X115231810Y-48970714D01*
X115422286Y-48923095D01*
X115517524Y-48875476D01*
X115612762Y-48780238D01*
X115660381Y-48637380D01*
X115660381Y-48542142D01*
X115612762Y-48399285D01*
X115565143Y-48351666D01*
X115231810Y-48351666D01*
X115231810Y-48542142D01*
X119788000Y-57446904D02*
X119740381Y-57542142D01*
X119740381Y-57684999D01*
X119788000Y-57827857D01*
X119883238Y-57923095D01*
X119978476Y-57970714D01*
X120168952Y-58018333D01*
X120311810Y-58018333D01*
X120502286Y-57970714D01*
X120597524Y-57923095D01*
X120692762Y-57827857D01*
X120740381Y-57684999D01*
X120740381Y-57589761D01*
X120692762Y-57446904D01*
X120645143Y-57399285D01*
X120311810Y-57399285D01*
X120311810Y-57589761D01*
X120740381Y-56970714D02*
X119740381Y-56970714D01*
X120740381Y-56399285D01*
X119740381Y-56399285D01*
X120740381Y-55923095D02*
X119740381Y-55923095D01*
X119740381Y-55685000D01*
X119788000Y-55542142D01*
X119883238Y-55446904D01*
X119978476Y-55399285D01*
X120168952Y-55351666D01*
X120311810Y-55351666D01*
X120502286Y-55399285D01*
X120597524Y-55446904D01*
X120692762Y-55542142D01*
X120740381Y-55685000D01*
X120740381Y-55923095D01*
X120359429Y-54161190D02*
X120359429Y-53399285D01*
X120740381Y-53780237D02*
X119978476Y-53780237D01*
X119740381Y-52446904D02*
X119740381Y-52923095D01*
X120216571Y-52970714D01*
X120168952Y-52923095D01*
X120121333Y-52827857D01*
X120121333Y-52589761D01*
X120168952Y-52494523D01*
X120216571Y-52446904D01*
X120311810Y-52399285D01*
X120549905Y-52399285D01*
X120645143Y-52446904D01*
X120692762Y-52494523D01*
X120740381Y-52589761D01*
X120740381Y-52827857D01*
X120692762Y-52923095D01*
X120645143Y-52970714D01*
X119740381Y-52113571D02*
X120740381Y-51780238D01*
X119740381Y-51446904D01*
X120692762Y-50399285D02*
X120740381Y-50256428D01*
X120740381Y-50018332D01*
X120692762Y-49923094D01*
X120645143Y-49875475D01*
X120549905Y-49827856D01*
X120454667Y-49827856D01*
X120359429Y-49875475D01*
X120311810Y-49923094D01*
X120264190Y-50018332D01*
X120216571Y-50208809D01*
X120168952Y-50304047D01*
X120121333Y-50351666D01*
X120026095Y-50399285D01*
X119930857Y-50399285D01*
X119835619Y-50351666D01*
X119788000Y-50304047D01*
X119740381Y-50208809D01*
X119740381Y-49970713D01*
X119788000Y-49827856D01*
X120740381Y-49399285D02*
X119740381Y-49399285D01*
X119788000Y-48399285D02*
X119740381Y-48494523D01*
X119740381Y-48637380D01*
X119788000Y-48780238D01*
X119883238Y-48875476D01*
X119978476Y-48923095D01*
X120168952Y-48970714D01*
X120311810Y-48970714D01*
X120502286Y-48923095D01*
X120597524Y-48875476D01*
X120692762Y-48780238D01*
X120740381Y-48637380D01*
X120740381Y-48542142D01*
X120692762Y-48399285D01*
X120645143Y-48351666D01*
X120311810Y-48351666D01*
X120311810Y-48542142D01*
X111850381Y-93539285D02*
X111850381Y-94110714D01*
X111850381Y-93825000D02*
X110850381Y-93825000D01*
X110993238Y-93920238D01*
X111088476Y-94015476D01*
X111136095Y-94110714D01*
X95688000Y-121505000D02*
X98228000Y-121505000D01*
X96958000Y-122775000D02*
X96958000Y-120235000D01*
X98228000Y-121505000D02*
G75*
G03X98228000Y-121505000I-1270000J0D01*
G01*
X90608000Y-124045000D02*
X90608000Y-118965000D01*
X90608000Y-118965000D02*
X91878000Y-118965000D01*
X91878000Y-124045000D02*
X91878000Y-118965000D01*
X91878000Y-118965000D02*
X99498000Y-118965000D01*
X99498000Y-118965000D02*
X99498000Y-124045000D01*
X95688000Y-126585000D02*
X98228000Y-126585000D01*
X96958000Y-127855000D02*
X96958000Y-125315000D01*
X95688000Y-131665000D02*
X98228000Y-131665000D01*
X96958000Y-132935000D02*
X96958000Y-130395000D01*
X98228000Y-126585000D02*
G75*
G03X98228000Y-126585000I-1270000J0D01*
G01*
X98228000Y-131665000D02*
G75*
G03X98228000Y-131665000I-1270000J0D01*
G01*
X91878000Y-134205000D02*
X91878000Y-124045000D01*
X94418000Y-134205000D02*
X90608000Y-134205000D01*
X90608000Y-134205000D02*
X90608000Y-124045000D01*
X99498000Y-124045000D02*
X99498000Y-134205000D01*
X99498000Y-134205000D02*
X94418000Y-134205000D01*
X81230032Y-123505000D02*
G75*
G03X81230032Y-123505000I-9672032J0D01*
G01*
X84066049Y-123505000D02*
G75*
G03X84066049Y-123505000I-12508049J0D01*
G01*
X53778000Y-123505000D02*
X53778000Y-109535000D01*
X53778000Y-109535000D02*
X89338000Y-109535000D01*
X89338000Y-109535000D02*
X89338000Y-137475000D01*
X89338000Y-137475000D02*
X53778000Y-137475000D01*
X53778000Y-137475000D02*
X53778000Y-123505000D01*
X65208000Y-145095000D02*
X82988000Y-145095000D01*
X82988000Y-145095000D02*
X82988000Y-142555000D01*
X82988000Y-142555000D02*
X65208000Y-142555000D01*
X62388000Y-145375000D02*
X63938000Y-145375000D01*
X65208000Y-145095000D02*
X65208000Y-142555000D01*
X63938000Y-142275000D02*
X62388000Y-142275000D01*
X62388000Y-142275000D02*
X62388000Y-145375000D01*
X88068000Y-145095000D02*
X100768000Y-145095000D01*
X100768000Y-145095000D02*
X100768000Y-142555000D01*
X100768000Y-142555000D02*
X88068000Y-142555000D01*
X85248000Y-145375000D02*
X86798000Y-145375000D01*
X88068000Y-145095000D02*
X88068000Y-142555000D01*
X86798000Y-142275000D02*
X85248000Y-142275000D01*
X85248000Y-142275000D02*
X85248000Y-145375000D01*
X56064000Y-96835000D02*
X78924000Y-96835000D01*
X78924000Y-96835000D02*
X78924000Y-94295000D01*
X78924000Y-94295000D02*
X56064000Y-94295000D01*
X53244000Y-97115000D02*
X54794000Y-97115000D01*
X56064000Y-96835000D02*
X56064000Y-94295000D01*
X54794000Y-94015000D02*
X53244000Y-94015000D01*
X53244000Y-94015000D02*
X53244000Y-97115000D01*
X82988000Y-96835000D02*
X100768000Y-96835000D01*
X100768000Y-96835000D02*
X100768000Y-94295000D01*
X100768000Y-94295000D02*
X82988000Y-94295000D01*
X80168000Y-97115000D02*
X81718000Y-97115000D01*
X82988000Y-96835000D02*
X82988000Y-94295000D01*
X81718000Y-94015000D02*
X80168000Y-94015000D01*
X80168000Y-94015000D02*
X80168000Y-97115000D01*
D13*
X94418000Y-102515000D02*
X99558000Y-102515000D01*
X99558000Y-102515000D02*
X99558000Y-99855000D01*
X99558000Y-99855000D02*
X94418000Y-99855000D01*
X94418000Y-99855000D02*
X94418000Y-102515000D01*
X93148000Y-102515000D02*
X91818000Y-102515000D01*
X91818000Y-102515000D02*
X91818000Y-101185000D01*
X94418000Y-138075000D02*
X99558000Y-138075000D01*
X99558000Y-138075000D02*
X99558000Y-135415000D01*
X99558000Y-135415000D02*
X94418000Y-135415000D01*
X94418000Y-135415000D02*
X94418000Y-138075000D01*
X93148000Y-138075000D02*
X91818000Y-138075000D01*
X91818000Y-138075000D02*
X91818000Y-136745000D01*
D11*
X95688000Y-106265000D02*
X98228000Y-106265000D01*
X96958000Y-107535000D02*
X96958000Y-104995000D01*
X98228000Y-106265000D02*
G75*
G03X98228000Y-106265000I-1270000J0D01*
G01*
X90608000Y-108805000D02*
X90608000Y-103725000D01*
X90608000Y-103725000D02*
X91878000Y-103725000D01*
X91878000Y-108805000D02*
X91878000Y-103725000D01*
X91878000Y-103725000D02*
X99498000Y-103725000D01*
X99498000Y-103725000D02*
X99498000Y-108805000D01*
X95688000Y-111345000D02*
X98228000Y-111345000D01*
X96958000Y-112615000D02*
X96958000Y-110075000D01*
X95688000Y-116425000D02*
X98228000Y-116425000D01*
X96958000Y-117695000D02*
X96958000Y-115155000D01*
X98228000Y-111345000D02*
G75*
G03X98228000Y-111345000I-1270000J0D01*
G01*
X98228000Y-116425000D02*
G75*
G03X98228000Y-116425000I-1270000J0D01*
G01*
X91878000Y-118965000D02*
X91878000Y-108805000D01*
X94418000Y-118965000D02*
X90608000Y-118965000D01*
X90608000Y-118965000D02*
X90608000Y-108805000D01*
X99498000Y-108805000D02*
X99498000Y-118965000D01*
X99498000Y-118965000D02*
X94418000Y-118965000D01*
D13*
X74158000Y-104455000D02*
X74158000Y-99315000D01*
X74158000Y-99315000D02*
X71498000Y-99315000D01*
X71498000Y-99315000D02*
X71498000Y-104455000D01*
X71498000Y-104455000D02*
X74158000Y-104455000D01*
X74158000Y-105725000D02*
X74158000Y-107055000D01*
X74158000Y-107055000D02*
X72828000Y-107055000D01*
X79238000Y-104455000D02*
X79238000Y-99315000D01*
X79238000Y-99315000D02*
X76578000Y-99315000D01*
X76578000Y-99315000D02*
X76578000Y-104455000D01*
X76578000Y-104455000D02*
X79238000Y-104455000D01*
X79238000Y-105725000D02*
X79238000Y-107055000D01*
X79238000Y-107055000D02*
X77908000Y-107055000D01*
X63998000Y-104455000D02*
X63998000Y-99315000D01*
X63998000Y-99315000D02*
X58798000Y-99315000D01*
X58798000Y-99315000D02*
X58798000Y-107055000D01*
X58798000Y-107055000D02*
X61398000Y-107055000D01*
X61398000Y-107055000D02*
X61398000Y-104455000D01*
X61398000Y-104455000D02*
X63998000Y-104455000D01*
X63998000Y-105725000D02*
X63998000Y-107055000D01*
X63998000Y-107055000D02*
X62668000Y-107055000D01*
X53718000Y-102455000D02*
X53718000Y-105055000D01*
X53718000Y-105055000D02*
X56378000Y-105055000D01*
X56378000Y-105055000D02*
X56378000Y-102455000D01*
X56378000Y-102455000D02*
X53718000Y-102455000D01*
X53718000Y-101185000D02*
X53718000Y-99855000D01*
X53718000Y-99855000D02*
X55048000Y-99855000D01*
D11*
X145688000Y-121505000D02*
X148228000Y-121505000D01*
X146958000Y-122775000D02*
X146958000Y-120235000D01*
X148228000Y-121505000D02*
G75*
G03X148228000Y-121505000I-1270000J0D01*
G01*
X140608000Y-124045000D02*
X140608000Y-118965000D01*
X140608000Y-118965000D02*
X141878000Y-118965000D01*
X141878000Y-124045000D02*
X141878000Y-118965000D01*
X141878000Y-118965000D02*
X149498000Y-118965000D01*
X149498000Y-118965000D02*
X149498000Y-124045000D01*
X145688000Y-126585000D02*
X148228000Y-126585000D01*
X146958000Y-127855000D02*
X146958000Y-125315000D01*
X145688000Y-131665000D02*
X148228000Y-131665000D01*
X146958000Y-132935000D02*
X146958000Y-130395000D01*
X148228000Y-126585000D02*
G75*
G03X148228000Y-126585000I-1270000J0D01*
G01*
X148228000Y-131665000D02*
G75*
G03X148228000Y-131665000I-1270000J0D01*
G01*
X141878000Y-134205000D02*
X141878000Y-124045000D01*
X144418000Y-134205000D02*
X140608000Y-134205000D01*
X140608000Y-134205000D02*
X140608000Y-124045000D01*
X149498000Y-124045000D02*
X149498000Y-134205000D01*
X149498000Y-134205000D02*
X144418000Y-134205000D01*
X131230032Y-123505000D02*
G75*
G03X131230032Y-123505000I-9672032J0D01*
G01*
X134066049Y-123505000D02*
G75*
G03X134066049Y-123505000I-12508049J0D01*
G01*
X103778000Y-123505000D02*
X103778000Y-109535000D01*
X103778000Y-109535000D02*
X139338000Y-109535000D01*
X139338000Y-109535000D02*
X139338000Y-137475000D01*
X139338000Y-137475000D02*
X103778000Y-137475000D01*
X103778000Y-137475000D02*
X103778000Y-123505000D01*
X115208000Y-145095000D02*
X132988000Y-145095000D01*
X132988000Y-145095000D02*
X132988000Y-142555000D01*
X132988000Y-142555000D02*
X115208000Y-142555000D01*
X112388000Y-145375000D02*
X113938000Y-145375000D01*
X115208000Y-145095000D02*
X115208000Y-142555000D01*
X113938000Y-142275000D02*
X112388000Y-142275000D01*
X112388000Y-142275000D02*
X112388000Y-145375000D01*
X138068000Y-145095000D02*
X150768000Y-145095000D01*
X150768000Y-145095000D02*
X150768000Y-142555000D01*
X150768000Y-142555000D02*
X138068000Y-142555000D01*
X135248000Y-145375000D02*
X136798000Y-145375000D01*
X138068000Y-145095000D02*
X138068000Y-142555000D01*
X136798000Y-142275000D02*
X135248000Y-142275000D01*
X135248000Y-142275000D02*
X135248000Y-145375000D01*
X106064000Y-96835000D02*
X128924000Y-96835000D01*
X128924000Y-96835000D02*
X128924000Y-94295000D01*
X128924000Y-94295000D02*
X106064000Y-94295000D01*
X103244000Y-97115000D02*
X104794000Y-97115000D01*
X106064000Y-96835000D02*
X106064000Y-94295000D01*
X104794000Y-94015000D02*
X103244000Y-94015000D01*
X103244000Y-94015000D02*
X103244000Y-97115000D01*
X132988000Y-96835000D02*
X150768000Y-96835000D01*
X150768000Y-96835000D02*
X150768000Y-94295000D01*
X150768000Y-94295000D02*
X132988000Y-94295000D01*
X130168000Y-97115000D02*
X131718000Y-97115000D01*
X132988000Y-96835000D02*
X132988000Y-94295000D01*
X131718000Y-94015000D02*
X130168000Y-94015000D01*
X130168000Y-94015000D02*
X130168000Y-97115000D01*
D13*
X144418000Y-102515000D02*
X149558000Y-102515000D01*
X149558000Y-102515000D02*
X149558000Y-99855000D01*
X149558000Y-99855000D02*
X144418000Y-99855000D01*
X144418000Y-99855000D02*
X144418000Y-102515000D01*
X143148000Y-102515000D02*
X141818000Y-102515000D01*
X141818000Y-102515000D02*
X141818000Y-101185000D01*
X144418000Y-138075000D02*
X149558000Y-138075000D01*
X149558000Y-138075000D02*
X149558000Y-135415000D01*
X149558000Y-135415000D02*
X144418000Y-135415000D01*
X144418000Y-135415000D02*
X144418000Y-138075000D01*
X143148000Y-138075000D02*
X141818000Y-138075000D01*
X141818000Y-138075000D02*
X141818000Y-136745000D01*
D11*
X145688000Y-106265000D02*
X148228000Y-106265000D01*
X146958000Y-107535000D02*
X146958000Y-104995000D01*
X148228000Y-106265000D02*
G75*
G03X148228000Y-106265000I-1270000J0D01*
G01*
X140608000Y-108805000D02*
X140608000Y-103725000D01*
X140608000Y-103725000D02*
X141878000Y-103725000D01*
X141878000Y-108805000D02*
X141878000Y-103725000D01*
X141878000Y-103725000D02*
X149498000Y-103725000D01*
X149498000Y-103725000D02*
X149498000Y-108805000D01*
X145688000Y-111345000D02*
X148228000Y-111345000D01*
X146958000Y-112615000D02*
X146958000Y-110075000D01*
X145688000Y-116425000D02*
X148228000Y-116425000D01*
X146958000Y-117695000D02*
X146958000Y-115155000D01*
X148228000Y-111345000D02*
G75*
G03X148228000Y-111345000I-1270000J0D01*
G01*
X148228000Y-116425000D02*
G75*
G03X148228000Y-116425000I-1270000J0D01*
G01*
X141878000Y-118965000D02*
X141878000Y-108805000D01*
X144418000Y-118965000D02*
X140608000Y-118965000D01*
X140608000Y-118965000D02*
X140608000Y-108805000D01*
X149498000Y-108805000D02*
X149498000Y-118965000D01*
X149498000Y-118965000D02*
X144418000Y-118965000D01*
D13*
X124158000Y-104455000D02*
X124158000Y-99315000D01*
X124158000Y-99315000D02*
X121498000Y-99315000D01*
X121498000Y-99315000D02*
X121498000Y-104455000D01*
X121498000Y-104455000D02*
X124158000Y-104455000D01*
X124158000Y-105725000D02*
X124158000Y-107055000D01*
X124158000Y-107055000D02*
X122828000Y-107055000D01*
X129238000Y-104455000D02*
X129238000Y-99315000D01*
X129238000Y-99315000D02*
X126578000Y-99315000D01*
X126578000Y-99315000D02*
X126578000Y-104455000D01*
X126578000Y-104455000D02*
X129238000Y-104455000D01*
X129238000Y-105725000D02*
X129238000Y-107055000D01*
X129238000Y-107055000D02*
X127908000Y-107055000D01*
X113998000Y-104455000D02*
X113998000Y-99315000D01*
X113998000Y-99315000D02*
X108798000Y-99315000D01*
X108798000Y-99315000D02*
X108798000Y-107055000D01*
X108798000Y-107055000D02*
X111398000Y-107055000D01*
X111398000Y-107055000D02*
X111398000Y-104455000D01*
X111398000Y-104455000D02*
X113998000Y-104455000D01*
X113998000Y-105725000D02*
X113998000Y-107055000D01*
X113998000Y-107055000D02*
X112668000Y-107055000D01*
X103718000Y-102455000D02*
X103718000Y-105055000D01*
X103718000Y-105055000D02*
X106378000Y-105055000D01*
X106378000Y-105055000D02*
X106378000Y-102455000D01*
X106378000Y-102455000D02*
X103718000Y-102455000D01*
X103718000Y-101185000D02*
X103718000Y-99855000D01*
X103718000Y-99855000D02*
X105048000Y-99855000D01*
D11*
X95688000Y-71505000D02*
X98228000Y-71505000D01*
X96958000Y-72775000D02*
X96958000Y-70235000D01*
X98228000Y-71505000D02*
G75*
G03X98228000Y-71505000I-1270000J0D01*
G01*
X90608000Y-74045000D02*
X90608000Y-68965000D01*
X90608000Y-68965000D02*
X91878000Y-68965000D01*
X91878000Y-74045000D02*
X91878000Y-68965000D01*
X91878000Y-68965000D02*
X99498000Y-68965000D01*
X99498000Y-68965000D02*
X99498000Y-74045000D01*
X95688000Y-76585000D02*
X98228000Y-76585000D01*
X96958000Y-77855000D02*
X96958000Y-75315000D01*
X95688000Y-81665000D02*
X98228000Y-81665000D01*
X96958000Y-82935000D02*
X96958000Y-80395000D01*
X98228000Y-76585000D02*
G75*
G03X98228000Y-76585000I-1270000J0D01*
G01*
X98228000Y-81665000D02*
G75*
G03X98228000Y-81665000I-1270000J0D01*
G01*
X91878000Y-84205000D02*
X91878000Y-74045000D01*
X94418000Y-84205000D02*
X90608000Y-84205000D01*
X90608000Y-84205000D02*
X90608000Y-74045000D01*
X99498000Y-74045000D02*
X99498000Y-84205000D01*
X99498000Y-84205000D02*
X94418000Y-84205000D01*
X81230032Y-73505000D02*
G75*
G03X81230032Y-73505000I-9672032J0D01*
G01*
X84066049Y-73505000D02*
G75*
G03X84066049Y-73505000I-12508049J0D01*
G01*
X53778000Y-73505000D02*
X53778000Y-59535000D01*
X53778000Y-59535000D02*
X89338000Y-59535000D01*
X89338000Y-59535000D02*
X89338000Y-87475000D01*
X89338000Y-87475000D02*
X53778000Y-87475000D01*
X53778000Y-87475000D02*
X53778000Y-73505000D01*
X65208000Y-95095000D02*
X82988000Y-95095000D01*
X82988000Y-95095000D02*
X82988000Y-92555000D01*
X82988000Y-92555000D02*
X65208000Y-92555000D01*
X62388000Y-95375000D02*
X63938000Y-95375000D01*
X65208000Y-95095000D02*
X65208000Y-92555000D01*
X63938000Y-92275000D02*
X62388000Y-92275000D01*
X62388000Y-92275000D02*
X62388000Y-95375000D01*
X88068000Y-95095000D02*
X100768000Y-95095000D01*
X100768000Y-95095000D02*
X100768000Y-92555000D01*
X100768000Y-92555000D02*
X88068000Y-92555000D01*
X85248000Y-95375000D02*
X86798000Y-95375000D01*
X88068000Y-95095000D02*
X88068000Y-92555000D01*
X86798000Y-92275000D02*
X85248000Y-92275000D01*
X85248000Y-92275000D02*
X85248000Y-95375000D01*
X56064000Y-46835000D02*
X78924000Y-46835000D01*
X78924000Y-46835000D02*
X78924000Y-44295000D01*
X78924000Y-44295000D02*
X56064000Y-44295000D01*
X53244000Y-47115000D02*
X54794000Y-47115000D01*
X56064000Y-46835000D02*
X56064000Y-44295000D01*
X54794000Y-44015000D02*
X53244000Y-44015000D01*
X53244000Y-44015000D02*
X53244000Y-47115000D01*
X82988000Y-46835000D02*
X100768000Y-46835000D01*
X100768000Y-46835000D02*
X100768000Y-44295000D01*
X100768000Y-44295000D02*
X82988000Y-44295000D01*
X80168000Y-47115000D02*
X81718000Y-47115000D01*
X82988000Y-46835000D02*
X82988000Y-44295000D01*
X81718000Y-44015000D02*
X80168000Y-44015000D01*
X80168000Y-44015000D02*
X80168000Y-47115000D01*
D13*
X94418000Y-52515000D02*
X99558000Y-52515000D01*
X99558000Y-52515000D02*
X99558000Y-49855000D01*
X99558000Y-49855000D02*
X94418000Y-49855000D01*
X94418000Y-49855000D02*
X94418000Y-52515000D01*
X93148000Y-52515000D02*
X91818000Y-52515000D01*
X91818000Y-52515000D02*
X91818000Y-51185000D01*
X94418000Y-88075000D02*
X99558000Y-88075000D01*
X99558000Y-88075000D02*
X99558000Y-85415000D01*
X99558000Y-85415000D02*
X94418000Y-85415000D01*
X94418000Y-85415000D02*
X94418000Y-88075000D01*
X93148000Y-88075000D02*
X91818000Y-88075000D01*
X91818000Y-88075000D02*
X91818000Y-86745000D01*
D11*
X95688000Y-56265000D02*
X98228000Y-56265000D01*
X96958000Y-57535000D02*
X96958000Y-54995000D01*
X98228000Y-56265000D02*
G75*
G03X98228000Y-56265000I-1270000J0D01*
G01*
X90608000Y-58805000D02*
X90608000Y-53725000D01*
X90608000Y-53725000D02*
X91878000Y-53725000D01*
X91878000Y-58805000D02*
X91878000Y-53725000D01*
X91878000Y-53725000D02*
X99498000Y-53725000D01*
X99498000Y-53725000D02*
X99498000Y-58805000D01*
X95688000Y-61345000D02*
X98228000Y-61345000D01*
X96958000Y-62615000D02*
X96958000Y-60075000D01*
X95688000Y-66425000D02*
X98228000Y-66425000D01*
X96958000Y-67695000D02*
X96958000Y-65155000D01*
X98228000Y-61345000D02*
G75*
G03X98228000Y-61345000I-1270000J0D01*
G01*
X98228000Y-66425000D02*
G75*
G03X98228000Y-66425000I-1270000J0D01*
G01*
X91878000Y-68965000D02*
X91878000Y-58805000D01*
X94418000Y-68965000D02*
X90608000Y-68965000D01*
X90608000Y-68965000D02*
X90608000Y-58805000D01*
X99498000Y-58805000D02*
X99498000Y-68965000D01*
X99498000Y-68965000D02*
X94418000Y-68965000D01*
D13*
X74158000Y-54455000D02*
X74158000Y-49315000D01*
X74158000Y-49315000D02*
X71498000Y-49315000D01*
X71498000Y-49315000D02*
X71498000Y-54455000D01*
X71498000Y-54455000D02*
X74158000Y-54455000D01*
X74158000Y-55725000D02*
X74158000Y-57055000D01*
X74158000Y-57055000D02*
X72828000Y-57055000D01*
X79238000Y-54455000D02*
X79238000Y-49315000D01*
X79238000Y-49315000D02*
X76578000Y-49315000D01*
X76578000Y-49315000D02*
X76578000Y-54455000D01*
X76578000Y-54455000D02*
X79238000Y-54455000D01*
X79238000Y-55725000D02*
X79238000Y-57055000D01*
X79238000Y-57055000D02*
X77908000Y-57055000D01*
X63998000Y-54455000D02*
X63998000Y-49315000D01*
X63998000Y-49315000D02*
X58798000Y-49315000D01*
X58798000Y-49315000D02*
X58798000Y-57055000D01*
X58798000Y-57055000D02*
X61398000Y-57055000D01*
X61398000Y-57055000D02*
X61398000Y-54455000D01*
X61398000Y-54455000D02*
X63998000Y-54455000D01*
X63998000Y-55725000D02*
X63998000Y-57055000D01*
X63998000Y-57055000D02*
X62668000Y-57055000D01*
X53718000Y-52455000D02*
X53718000Y-55055000D01*
X53718000Y-55055000D02*
X56378000Y-55055000D01*
X56378000Y-55055000D02*
X56378000Y-52455000D01*
X56378000Y-52455000D02*
X53718000Y-52455000D01*
X53718000Y-51185000D02*
X53718000Y-49855000D01*
X53718000Y-49855000D02*
X55048000Y-49855000D01*
D11*
X145688000Y-71505000D02*
X148228000Y-71505000D01*
X146958000Y-72775000D02*
X146958000Y-70235000D01*
X148228000Y-71505000D02*
G75*
G03X148228000Y-71505000I-1270000J0D01*
G01*
X140608000Y-74045000D02*
X140608000Y-68965000D01*
X140608000Y-68965000D02*
X141878000Y-68965000D01*
X141878000Y-74045000D02*
X141878000Y-68965000D01*
X141878000Y-68965000D02*
X149498000Y-68965000D01*
X149498000Y-68965000D02*
X149498000Y-74045000D01*
X145688000Y-76585000D02*
X148228000Y-76585000D01*
X146958000Y-77855000D02*
X146958000Y-75315000D01*
X145688000Y-81665000D02*
X148228000Y-81665000D01*
X146958000Y-82935000D02*
X146958000Y-80395000D01*
X148228000Y-76585000D02*
G75*
G03X148228000Y-76585000I-1270000J0D01*
G01*
X148228000Y-81665000D02*
G75*
G03X148228000Y-81665000I-1270000J0D01*
G01*
X141878000Y-84205000D02*
X141878000Y-74045000D01*
X144418000Y-84205000D02*
X140608000Y-84205000D01*
X140608000Y-84205000D02*
X140608000Y-74045000D01*
X149498000Y-74045000D02*
X149498000Y-84205000D01*
X149498000Y-84205000D02*
X144418000Y-84205000D01*
X131230032Y-73505000D02*
G75*
G03X131230032Y-73505000I-9672032J0D01*
G01*
X134066049Y-73505000D02*
G75*
G03X134066049Y-73505000I-12508049J0D01*
G01*
X103778000Y-73505000D02*
X103778000Y-59535000D01*
X103778000Y-59535000D02*
X139338000Y-59535000D01*
X139338000Y-59535000D02*
X139338000Y-87475000D01*
X139338000Y-87475000D02*
X103778000Y-87475000D01*
X103778000Y-87475000D02*
X103778000Y-73505000D01*
X115208000Y-95095000D02*
X132988000Y-95095000D01*
X132988000Y-95095000D02*
X132988000Y-92555000D01*
X132988000Y-92555000D02*
X115208000Y-92555000D01*
X112388000Y-95375000D02*
X113938000Y-95375000D01*
X115208000Y-95095000D02*
X115208000Y-92555000D01*
X113938000Y-92275000D02*
X112388000Y-92275000D01*
X112388000Y-92275000D02*
X112388000Y-95375000D01*
X138068000Y-95095000D02*
X150768000Y-95095000D01*
X150768000Y-95095000D02*
X150768000Y-92555000D01*
X150768000Y-92555000D02*
X138068000Y-92555000D01*
X135248000Y-95375000D02*
X136798000Y-95375000D01*
X138068000Y-95095000D02*
X138068000Y-92555000D01*
X136798000Y-92275000D02*
X135248000Y-92275000D01*
X135248000Y-92275000D02*
X135248000Y-95375000D01*
X106064000Y-46835000D02*
X128924000Y-46835000D01*
X128924000Y-46835000D02*
X128924000Y-44295000D01*
X128924000Y-44295000D02*
X106064000Y-44295000D01*
X103244000Y-47115000D02*
X104794000Y-47115000D01*
X106064000Y-46835000D02*
X106064000Y-44295000D01*
X104794000Y-44015000D02*
X103244000Y-44015000D01*
X103244000Y-44015000D02*
X103244000Y-47115000D01*
X132988000Y-46835000D02*
X150768000Y-46835000D01*
X150768000Y-46835000D02*
X150768000Y-44295000D01*
X150768000Y-44295000D02*
X132988000Y-44295000D01*
X130168000Y-47115000D02*
X131718000Y-47115000D01*
X132988000Y-46835000D02*
X132988000Y-44295000D01*
X131718000Y-44015000D02*
X130168000Y-44015000D01*
X130168000Y-44015000D02*
X130168000Y-47115000D01*
D13*
X144418000Y-52515000D02*
X149558000Y-52515000D01*
X149558000Y-52515000D02*
X149558000Y-49855000D01*
X149558000Y-49855000D02*
X144418000Y-49855000D01*
X144418000Y-49855000D02*
X144418000Y-52515000D01*
X143148000Y-52515000D02*
X141818000Y-52515000D01*
X141818000Y-52515000D02*
X141818000Y-51185000D01*
X144418000Y-88075000D02*
X149558000Y-88075000D01*
X149558000Y-88075000D02*
X149558000Y-85415000D01*
X149558000Y-85415000D02*
X144418000Y-85415000D01*
X144418000Y-85415000D02*
X144418000Y-88075000D01*
X143148000Y-88075000D02*
X141818000Y-88075000D01*
X141818000Y-88075000D02*
X141818000Y-86745000D01*
D11*
X145688000Y-56265000D02*
X148228000Y-56265000D01*
X146958000Y-57535000D02*
X146958000Y-54995000D01*
X148228000Y-56265000D02*
G75*
G03X148228000Y-56265000I-1270000J0D01*
G01*
X140608000Y-58805000D02*
X140608000Y-53725000D01*
X140608000Y-53725000D02*
X141878000Y-53725000D01*
X141878000Y-58805000D02*
X141878000Y-53725000D01*
X141878000Y-53725000D02*
X149498000Y-53725000D01*
X149498000Y-53725000D02*
X149498000Y-58805000D01*
X145688000Y-61345000D02*
X148228000Y-61345000D01*
X146958000Y-62615000D02*
X146958000Y-60075000D01*
X145688000Y-66425000D02*
X148228000Y-66425000D01*
X146958000Y-67695000D02*
X146958000Y-65155000D01*
X148228000Y-61345000D02*
G75*
G03X148228000Y-61345000I-1270000J0D01*
G01*
X148228000Y-66425000D02*
G75*
G03X148228000Y-66425000I-1270000J0D01*
G01*
X141878000Y-68965000D02*
X141878000Y-58805000D01*
X144418000Y-68965000D02*
X140608000Y-68965000D01*
X140608000Y-68965000D02*
X140608000Y-58805000D01*
X149498000Y-58805000D02*
X149498000Y-68965000D01*
X149498000Y-68965000D02*
X144418000Y-68965000D01*
D13*
X124158000Y-54455000D02*
X124158000Y-49315000D01*
X124158000Y-49315000D02*
X121498000Y-49315000D01*
X121498000Y-49315000D02*
X121498000Y-54455000D01*
X121498000Y-54455000D02*
X124158000Y-54455000D01*
X124158000Y-55725000D02*
X124158000Y-57055000D01*
X124158000Y-57055000D02*
X122828000Y-57055000D01*
X129238000Y-54455000D02*
X129238000Y-49315000D01*
X129238000Y-49315000D02*
X126578000Y-49315000D01*
X126578000Y-49315000D02*
X126578000Y-54455000D01*
X126578000Y-54455000D02*
X129238000Y-54455000D01*
X129238000Y-55725000D02*
X129238000Y-57055000D01*
X129238000Y-57055000D02*
X127908000Y-57055000D01*
X113998000Y-54455000D02*
X113998000Y-49315000D01*
X113998000Y-49315000D02*
X108798000Y-49315000D01*
X108798000Y-49315000D02*
X108798000Y-57055000D01*
X108798000Y-57055000D02*
X111398000Y-57055000D01*
X111398000Y-57055000D02*
X111398000Y-54455000D01*
X111398000Y-54455000D02*
X113998000Y-54455000D01*
X113998000Y-55725000D02*
X113998000Y-57055000D01*
X113998000Y-57055000D02*
X112668000Y-57055000D01*
X103718000Y-52455000D02*
X103718000Y-55055000D01*
X103718000Y-55055000D02*
X106378000Y-55055000D01*
X106378000Y-55055000D02*
X106378000Y-52455000D01*
X106378000Y-52455000D02*
X103718000Y-52455000D01*
X103718000Y-51185000D02*
X103718000Y-49855000D01*
X103718000Y-49855000D02*
X105048000Y-49855000D01*
D11*
X92490857Y-124350000D02*
X93348000Y-124350000D01*
X93519429Y-124407142D01*
X93633714Y-124521428D01*
X93690857Y-124692857D01*
X93690857Y-124807142D01*
X92890857Y-123264285D02*
X93690857Y-123264285D01*
X92433714Y-123549999D02*
X93290857Y-123835714D01*
X93290857Y-123092856D01*
X89823714Y-130727858D02*
X89880857Y-130556429D01*
X89880857Y-130270715D01*
X89823714Y-130156429D01*
X89766571Y-130099286D01*
X89652286Y-130042143D01*
X89538000Y-130042143D01*
X89423714Y-130099286D01*
X89366571Y-130156429D01*
X89309429Y-130270715D01*
X89252286Y-130499286D01*
X89195143Y-130613572D01*
X89138000Y-130670715D01*
X89023714Y-130727858D01*
X88909429Y-130727858D01*
X88795143Y-130670715D01*
X88738000Y-130613572D01*
X88680857Y-130499286D01*
X88680857Y-130213572D01*
X88738000Y-130042143D01*
X89080857Y-129699286D02*
X89080857Y-129242143D01*
X88680857Y-129527858D02*
X89709429Y-129527858D01*
X89823714Y-129470715D01*
X89880857Y-129356429D01*
X89880857Y-129242143D01*
X89880857Y-128842144D02*
X89080857Y-128842144D01*
X88680857Y-128842144D02*
X88738000Y-128899287D01*
X88795143Y-128842144D01*
X88738000Y-128785001D01*
X88680857Y-128842144D01*
X88795143Y-128842144D01*
X89823714Y-127756429D02*
X89880857Y-127870715D01*
X89880857Y-128099286D01*
X89823714Y-128213572D01*
X89766571Y-128270715D01*
X89652286Y-128327858D01*
X89309429Y-128327858D01*
X89195143Y-128270715D01*
X89138000Y-128213572D01*
X89080857Y-128099286D01*
X89080857Y-127870715D01*
X89138000Y-127756429D01*
X89880857Y-127242144D02*
X88680857Y-127242144D01*
X89423714Y-127127858D02*
X89880857Y-126785001D01*
X89080857Y-126785001D02*
X89538000Y-127242144D01*
X89880857Y-124785000D02*
X89880857Y-125356429D01*
X88680857Y-125356429D01*
X88623714Y-123527857D02*
X90166571Y-124556428D01*
X89880857Y-122442142D02*
X89309429Y-122842142D01*
X89880857Y-123127857D02*
X88680857Y-123127857D01*
X88680857Y-122670714D01*
X88738000Y-122556428D01*
X88795143Y-122499285D01*
X88909429Y-122442142D01*
X89080857Y-122442142D01*
X89195143Y-122499285D01*
X89252286Y-122556428D01*
X89309429Y-122670714D01*
X89309429Y-123127857D01*
D12*
X56853714Y-123754999D02*
X56925143Y-123826428D01*
X56996571Y-124040714D01*
X56996571Y-124183571D01*
X56925143Y-124397856D01*
X56782286Y-124540714D01*
X56639429Y-124612142D01*
X56353714Y-124683571D01*
X56139429Y-124683571D01*
X55853714Y-124612142D01*
X55710857Y-124540714D01*
X55568000Y-124397856D01*
X55496571Y-124183571D01*
X55496571Y-124040714D01*
X55568000Y-123826428D01*
X55639429Y-123754999D01*
X56996571Y-122326428D02*
X56996571Y-123183571D01*
X56996571Y-122754999D02*
X55496571Y-122754999D01*
X55710857Y-122897856D01*
X55853714Y-123040714D01*
X55925143Y-123183571D01*
X70601571Y-127540713D02*
X70601571Y-126469284D01*
X69958714Y-127112141D02*
X71887286Y-127540713D01*
X71244429Y-126612141D02*
X71244429Y-127683570D01*
X71887286Y-127040713D02*
X69958714Y-126612141D01*
X70244429Y-126040713D02*
X70173000Y-125969284D01*
X70101571Y-125826427D01*
X70101571Y-125469284D01*
X70173000Y-125326427D01*
X70244429Y-125254998D01*
X70387286Y-125183570D01*
X70530143Y-125183570D01*
X70744429Y-125254998D01*
X71601571Y-126112141D01*
X71601571Y-125183570D01*
X70101571Y-124683570D02*
X70101571Y-123683570D01*
X71601571Y-124326427D01*
X70744429Y-122897856D02*
X70673000Y-123040714D01*
X70601571Y-123112142D01*
X70458714Y-123183571D01*
X70387286Y-123183571D01*
X70244429Y-123112142D01*
X70173000Y-123040714D01*
X70101571Y-122897856D01*
X70101571Y-122612142D01*
X70173000Y-122469285D01*
X70244429Y-122397856D01*
X70387286Y-122326428D01*
X70458714Y-122326428D01*
X70601571Y-122397856D01*
X70673000Y-122469285D01*
X70744429Y-122612142D01*
X70744429Y-122897856D01*
X70815857Y-123040714D01*
X70887286Y-123112142D01*
X71030143Y-123183571D01*
X71315857Y-123183571D01*
X71458714Y-123112142D01*
X71530143Y-123040714D01*
X71601571Y-122897856D01*
X71601571Y-122612142D01*
X71530143Y-122469285D01*
X71458714Y-122397856D01*
X71315857Y-122326428D01*
X71030143Y-122326428D01*
X70887286Y-122397856D01*
X70815857Y-122469285D01*
X70744429Y-122612142D01*
X70101571Y-121397857D02*
X70101571Y-121255000D01*
X70173000Y-121112143D01*
X70244429Y-121040714D01*
X70387286Y-120969285D01*
X70673000Y-120897857D01*
X71030143Y-120897857D01*
X71315857Y-120969285D01*
X71458714Y-121040714D01*
X71530143Y-121112143D01*
X71601571Y-121255000D01*
X71601571Y-121397857D01*
X71530143Y-121540714D01*
X71458714Y-121612143D01*
X71315857Y-121683571D01*
X71030143Y-121755000D01*
X70673000Y-121755000D01*
X70387286Y-121683571D01*
X70244429Y-121612143D01*
X70173000Y-121540714D01*
X70101571Y-121397857D01*
X70101571Y-119969286D02*
X70101571Y-119826429D01*
X70173000Y-119683572D01*
X70244429Y-119612143D01*
X70387286Y-119540714D01*
X70673000Y-119469286D01*
X71030143Y-119469286D01*
X71315857Y-119540714D01*
X71458714Y-119612143D01*
X71530143Y-119683572D01*
X71601571Y-119826429D01*
X71601571Y-119969286D01*
X71530143Y-120112143D01*
X71458714Y-120183572D01*
X71315857Y-120255000D01*
X71030143Y-120326429D01*
X70673000Y-120326429D01*
X70387286Y-120255000D01*
X70244429Y-120183572D01*
X70173000Y-120112143D01*
X70101571Y-119969286D01*
D11*
X62564905Y-141102381D02*
X62564905Y-140102381D01*
X62945858Y-140102381D01*
X63041096Y-140150000D01*
X63088715Y-140197619D01*
X63136334Y-140292857D01*
X63136334Y-140435714D01*
X63088715Y-140530952D01*
X63041096Y-140578571D01*
X62945858Y-140626190D01*
X62564905Y-140626190D01*
X64088715Y-141102381D02*
X63517286Y-141102381D01*
X63803000Y-141102381D02*
X63803000Y-140102381D01*
X63707762Y-140245238D01*
X63612524Y-140340476D01*
X63517286Y-140388095D01*
X85424905Y-141102381D02*
X85424905Y-140102381D01*
X85805858Y-140102381D01*
X85901096Y-140150000D01*
X85948715Y-140197619D01*
X85996334Y-140292857D01*
X85996334Y-140435714D01*
X85948715Y-140530952D01*
X85901096Y-140578571D01*
X85805858Y-140626190D01*
X85424905Y-140626190D01*
X86377286Y-140197619D02*
X86424905Y-140150000D01*
X86520143Y-140102381D01*
X86758239Y-140102381D01*
X86853477Y-140150000D01*
X86901096Y-140197619D01*
X86948715Y-140292857D01*
X86948715Y-140388095D01*
X86901096Y-140530952D01*
X86329667Y-141102381D01*
X86948715Y-141102381D01*
X53674905Y-99192381D02*
X53674905Y-98192381D01*
X54055858Y-98192381D01*
X54151096Y-98240000D01*
X54198715Y-98287619D01*
X54246334Y-98382857D01*
X54246334Y-98525714D01*
X54198715Y-98620952D01*
X54151096Y-98668571D01*
X54055858Y-98716190D01*
X53674905Y-98716190D01*
X54579667Y-98192381D02*
X55198715Y-98192381D01*
X54865381Y-98573333D01*
X55008239Y-98573333D01*
X55103477Y-98620952D01*
X55151096Y-98668571D01*
X55198715Y-98763810D01*
X55198715Y-99001905D01*
X55151096Y-99097143D01*
X55103477Y-99144762D01*
X55008239Y-99192381D01*
X54722524Y-99192381D01*
X54627286Y-99144762D01*
X54579667Y-99097143D01*
X80979905Y-99192381D02*
X80979905Y-98192381D01*
X81360858Y-98192381D01*
X81456096Y-98240000D01*
X81503715Y-98287619D01*
X81551334Y-98382857D01*
X81551334Y-98525714D01*
X81503715Y-98620952D01*
X81456096Y-98668571D01*
X81360858Y-98716190D01*
X80979905Y-98716190D01*
X82408477Y-98525714D02*
X82408477Y-99192381D01*
X82170381Y-98144762D02*
X81932286Y-98859048D01*
X82551334Y-98859048D01*
X100220381Y-101518333D02*
X100934667Y-101518333D01*
X101077524Y-101565953D01*
X101172762Y-101661191D01*
X101220381Y-101804048D01*
X101220381Y-101899286D01*
X101220381Y-100518333D02*
X101220381Y-101089762D01*
X101220381Y-100804048D02*
X100220381Y-100804048D01*
X100363238Y-100899286D01*
X100458476Y-100994524D01*
X100506095Y-101089762D01*
X90060381Y-102494524D02*
X90869905Y-102494524D01*
X90965143Y-102446905D01*
X91012762Y-102399286D01*
X91060381Y-102304048D01*
X91060381Y-102113571D01*
X91012762Y-102018333D01*
X90965143Y-101970714D01*
X90869905Y-101923095D01*
X90060381Y-101923095D01*
X90012762Y-100732619D02*
X91298476Y-101589762D01*
X91060381Y-100399286D02*
X90060381Y-100399286D01*
X90060381Y-100161191D01*
X90108000Y-100018333D01*
X90203238Y-99923095D01*
X90298476Y-99875476D01*
X90488952Y-99827857D01*
X90631810Y-99827857D01*
X90822286Y-99875476D01*
X90917524Y-99923095D01*
X91012762Y-100018333D01*
X91060381Y-100161191D01*
X91060381Y-100399286D01*
X100220381Y-137078333D02*
X100934667Y-137078333D01*
X101077524Y-137125953D01*
X101172762Y-137221191D01*
X101220381Y-137364048D01*
X101220381Y-137459286D01*
X100315619Y-136649762D02*
X100268000Y-136602143D01*
X100220381Y-136506905D01*
X100220381Y-136268809D01*
X100268000Y-136173571D01*
X100315619Y-136125952D01*
X100410857Y-136078333D01*
X100506095Y-136078333D01*
X100648952Y-136125952D01*
X101220381Y-136697381D01*
X101220381Y-136078333D01*
X91060381Y-137459285D02*
X91060381Y-137935476D01*
X90060381Y-137935476D01*
X90012762Y-136411666D02*
X91298476Y-137268809D01*
X91060381Y-135506904D02*
X90584190Y-135840238D01*
X91060381Y-136078333D02*
X90060381Y-136078333D01*
X90060381Y-135697380D01*
X90108000Y-135602142D01*
X90155619Y-135554523D01*
X90250857Y-135506904D01*
X90393714Y-135506904D01*
X90488952Y-135554523D01*
X90536571Y-135602142D01*
X90584190Y-135697380D01*
X90584190Y-136078333D01*
X92490857Y-109110000D02*
X93348000Y-109110000D01*
X93519429Y-109167142D01*
X93633714Y-109281428D01*
X93690857Y-109452857D01*
X93690857Y-109567142D01*
X92490857Y-108652856D02*
X92490857Y-107909999D01*
X92948000Y-108309999D01*
X92948000Y-108138571D01*
X93005143Y-108024285D01*
X93062286Y-107967142D01*
X93176571Y-107909999D01*
X93462286Y-107909999D01*
X93576571Y-107967142D01*
X93633714Y-108024285D01*
X93690857Y-108138571D01*
X93690857Y-108481428D01*
X93633714Y-108595714D01*
X93576571Y-108652856D01*
X89823714Y-115630715D02*
X89880857Y-115459286D01*
X89880857Y-115173572D01*
X89823714Y-115059286D01*
X89766571Y-115002143D01*
X89652286Y-114945000D01*
X89538000Y-114945000D01*
X89423714Y-115002143D01*
X89366571Y-115059286D01*
X89309429Y-115173572D01*
X89252286Y-115402143D01*
X89195143Y-115516429D01*
X89138000Y-115573572D01*
X89023714Y-115630715D01*
X88909429Y-115630715D01*
X88795143Y-115573572D01*
X88738000Y-115516429D01*
X88680857Y-115402143D01*
X88680857Y-115116429D01*
X88738000Y-114945000D01*
X89080857Y-114602143D02*
X89080857Y-114145000D01*
X88680857Y-114430715D02*
X89709429Y-114430715D01*
X89823714Y-114373572D01*
X89880857Y-114259286D01*
X89880857Y-114145000D01*
X89880857Y-113745001D02*
X89080857Y-113745001D01*
X88680857Y-113745001D02*
X88738000Y-113802144D01*
X88795143Y-113745001D01*
X88738000Y-113687858D01*
X88680857Y-113745001D01*
X88795143Y-113745001D01*
X89823714Y-112659286D02*
X89880857Y-112773572D01*
X89880857Y-113002143D01*
X89823714Y-113116429D01*
X89766571Y-113173572D01*
X89652286Y-113230715D01*
X89309429Y-113230715D01*
X89195143Y-113173572D01*
X89138000Y-113116429D01*
X89080857Y-113002143D01*
X89080857Y-112773572D01*
X89138000Y-112659286D01*
X89880857Y-112145001D02*
X88680857Y-112145001D01*
X89423714Y-112030715D02*
X89880857Y-111687858D01*
X89080857Y-111687858D02*
X89538000Y-112145001D01*
X88680857Y-110259286D02*
X89652286Y-110259286D01*
X89766571Y-110202143D01*
X89823714Y-110145000D01*
X89880857Y-110030714D01*
X89880857Y-109802143D01*
X89823714Y-109687857D01*
X89766571Y-109630714D01*
X89652286Y-109573571D01*
X88680857Y-109573571D01*
X88623714Y-108145000D02*
X90166571Y-109173571D01*
X89880857Y-107745000D02*
X88680857Y-107745000D01*
X88680857Y-107459285D01*
X88738000Y-107287857D01*
X88852286Y-107173571D01*
X88966571Y-107116428D01*
X89195143Y-107059285D01*
X89366571Y-107059285D01*
X89595143Y-107116428D01*
X89709429Y-107173571D01*
X89823714Y-107287857D01*
X89880857Y-107459285D01*
X89880857Y-107745000D01*
X72494667Y-107507381D02*
X72494667Y-108221667D01*
X72447047Y-108364524D01*
X72351809Y-108459762D01*
X72208952Y-108507381D01*
X72113714Y-108507381D01*
X73447048Y-107507381D02*
X72970857Y-107507381D01*
X72923238Y-107983571D01*
X72970857Y-107935952D01*
X73066095Y-107888333D01*
X73304191Y-107888333D01*
X73399429Y-107935952D01*
X73447048Y-107983571D01*
X73494667Y-108078810D01*
X73494667Y-108316905D01*
X73447048Y-108412143D01*
X73399429Y-108459762D01*
X73304191Y-108507381D01*
X73066095Y-108507381D01*
X72970857Y-108459762D01*
X72923238Y-108412143D01*
X75772762Y-106970715D02*
X75820381Y-106827858D01*
X75820381Y-106589762D01*
X75772762Y-106494524D01*
X75725143Y-106446905D01*
X75629905Y-106399286D01*
X75534667Y-106399286D01*
X75439429Y-106446905D01*
X75391810Y-106494524D01*
X75344190Y-106589762D01*
X75296571Y-106780239D01*
X75248952Y-106875477D01*
X75201333Y-106923096D01*
X75106095Y-106970715D01*
X75010857Y-106970715D01*
X74915619Y-106923096D01*
X74868000Y-106875477D01*
X74820381Y-106780239D01*
X74820381Y-106542143D01*
X74868000Y-106399286D01*
X75772762Y-105589762D02*
X75820381Y-105685000D01*
X75820381Y-105875477D01*
X75772762Y-105970715D01*
X75677524Y-106018334D01*
X75296571Y-106018334D01*
X75201333Y-105970715D01*
X75153714Y-105875477D01*
X75153714Y-105685000D01*
X75201333Y-105589762D01*
X75296571Y-105542143D01*
X75391810Y-105542143D01*
X75487048Y-106018334D01*
X75820381Y-105113572D02*
X75153714Y-105113572D01*
X75344190Y-105113572D02*
X75248952Y-105065953D01*
X75201333Y-105018334D01*
X75153714Y-104923096D01*
X75153714Y-104827857D01*
X75153714Y-104589762D02*
X75820381Y-104351667D01*
X75153714Y-104113571D01*
X75820381Y-103589762D02*
X75772762Y-103685000D01*
X75725143Y-103732619D01*
X75629905Y-103780238D01*
X75344190Y-103780238D01*
X75248952Y-103732619D01*
X75201333Y-103685000D01*
X75153714Y-103589762D01*
X75153714Y-103446904D01*
X75201333Y-103351666D01*
X75248952Y-103304047D01*
X75344190Y-103256428D01*
X75629905Y-103256428D01*
X75725143Y-103304047D01*
X75772762Y-103351666D01*
X75820381Y-103446904D01*
X75820381Y-103589762D01*
X74820381Y-102065952D02*
X75629905Y-102065952D01*
X75725143Y-102018333D01*
X75772762Y-101970714D01*
X75820381Y-101875476D01*
X75820381Y-101684999D01*
X75772762Y-101589761D01*
X75725143Y-101542142D01*
X75629905Y-101494523D01*
X74820381Y-101494523D01*
X74772762Y-100304047D02*
X76058476Y-101161190D01*
X75820381Y-99970714D02*
X74820381Y-99970714D01*
X74820381Y-99732619D01*
X74868000Y-99589761D01*
X74963238Y-99494523D01*
X75058476Y-99446904D01*
X75248952Y-99399285D01*
X75391810Y-99399285D01*
X75582286Y-99446904D01*
X75677524Y-99494523D01*
X75772762Y-99589761D01*
X75820381Y-99732619D01*
X75820381Y-99970714D01*
X77574667Y-107507381D02*
X77574667Y-108221667D01*
X77527047Y-108364524D01*
X77431809Y-108459762D01*
X77288952Y-108507381D01*
X77193714Y-108507381D01*
X78479429Y-107507381D02*
X78288952Y-107507381D01*
X78193714Y-107555000D01*
X78146095Y-107602619D01*
X78050857Y-107745476D01*
X78003238Y-107935952D01*
X78003238Y-108316905D01*
X78050857Y-108412143D01*
X78098476Y-108459762D01*
X78193714Y-108507381D01*
X78384191Y-108507381D01*
X78479429Y-108459762D01*
X78527048Y-108412143D01*
X78574667Y-108316905D01*
X78574667Y-108078810D01*
X78527048Y-107983571D01*
X78479429Y-107935952D01*
X78384191Y-107888333D01*
X78193714Y-107888333D01*
X78098476Y-107935952D01*
X78050857Y-107983571D01*
X78003238Y-108078810D01*
X80852762Y-106851667D02*
X80900381Y-106708810D01*
X80900381Y-106470714D01*
X80852762Y-106375476D01*
X80805143Y-106327857D01*
X80709905Y-106280238D01*
X80614667Y-106280238D01*
X80519429Y-106327857D01*
X80471810Y-106375476D01*
X80424190Y-106470714D01*
X80376571Y-106661191D01*
X80328952Y-106756429D01*
X80281333Y-106804048D01*
X80186095Y-106851667D01*
X80090857Y-106851667D01*
X79995619Y-106804048D01*
X79948000Y-106756429D01*
X79900381Y-106661191D01*
X79900381Y-106423095D01*
X79948000Y-106280238D01*
X80852762Y-105470714D02*
X80900381Y-105565952D01*
X80900381Y-105756429D01*
X80852762Y-105851667D01*
X80757524Y-105899286D01*
X80376571Y-105899286D01*
X80281333Y-105851667D01*
X80233714Y-105756429D01*
X80233714Y-105565952D01*
X80281333Y-105470714D01*
X80376571Y-105423095D01*
X80471810Y-105423095D01*
X80567048Y-105899286D01*
X80900381Y-104994524D02*
X80233714Y-104994524D01*
X80424190Y-104994524D02*
X80328952Y-104946905D01*
X80281333Y-104899286D01*
X80233714Y-104804048D01*
X80233714Y-104708809D01*
X80233714Y-104470714D02*
X80900381Y-104232619D01*
X80233714Y-103994523D01*
X80900381Y-103470714D02*
X80852762Y-103565952D01*
X80805143Y-103613571D01*
X80709905Y-103661190D01*
X80424190Y-103661190D01*
X80328952Y-103613571D01*
X80281333Y-103565952D01*
X80233714Y-103470714D01*
X80233714Y-103327856D01*
X80281333Y-103232618D01*
X80328952Y-103184999D01*
X80424190Y-103137380D01*
X80709905Y-103137380D01*
X80805143Y-103184999D01*
X80852762Y-103232618D01*
X80900381Y-103327856D01*
X80900381Y-103470714D01*
X80900381Y-101470713D02*
X80900381Y-101946904D01*
X79900381Y-101946904D01*
X79852762Y-100423094D02*
X81138476Y-101280237D01*
X80900381Y-99518332D02*
X80424190Y-99851666D01*
X80900381Y-100089761D02*
X79900381Y-100089761D01*
X79900381Y-99708808D01*
X79948000Y-99613570D01*
X79995619Y-99565951D01*
X80090857Y-99518332D01*
X80233714Y-99518332D01*
X80328952Y-99565951D01*
X80376571Y-99613570D01*
X80424190Y-99708808D01*
X80424190Y-100089761D01*
X61064667Y-107507381D02*
X61064667Y-108221667D01*
X61017047Y-108364524D01*
X60921809Y-108459762D01*
X60778952Y-108507381D01*
X60683714Y-108507381D01*
X61445619Y-107507381D02*
X62112286Y-107507381D01*
X61683714Y-108507381D01*
X58000858Y-107955714D02*
X58000858Y-108622381D01*
X57572286Y-107955714D02*
X57572286Y-108479524D01*
X57619905Y-108574762D01*
X57715143Y-108622381D01*
X57858001Y-108622381D01*
X57953239Y-108574762D01*
X58000858Y-108527143D01*
X58477048Y-107955714D02*
X58477048Y-108622381D01*
X58477048Y-108050952D02*
X58524667Y-108003333D01*
X58619905Y-107955714D01*
X58762763Y-107955714D01*
X58858001Y-108003333D01*
X58905620Y-108098571D01*
X58905620Y-108622381D01*
X59381810Y-108622381D02*
X59381810Y-107955714D01*
X59381810Y-107622381D02*
X59334191Y-107670000D01*
X59381810Y-107717619D01*
X59429429Y-107670000D01*
X59381810Y-107622381D01*
X59381810Y-107717619D01*
X59762762Y-107955714D02*
X60000857Y-108622381D01*
X60238953Y-107955714D01*
X53976571Y-106717381D02*
X53976571Y-105717381D01*
X53976571Y-106098333D02*
X54071809Y-106050714D01*
X54262286Y-106050714D01*
X54357524Y-106098333D01*
X54405143Y-106145952D01*
X54452762Y-106241190D01*
X54452762Y-106526905D01*
X54405143Y-106622143D01*
X54357524Y-106669762D01*
X54262286Y-106717381D01*
X54071809Y-106717381D01*
X53976571Y-106669762D01*
X55309905Y-106717381D02*
X55309905Y-106193571D01*
X55262286Y-106098333D01*
X55167048Y-106050714D01*
X54976571Y-106050714D01*
X54881333Y-106098333D01*
X55309905Y-106669762D02*
X55214667Y-106717381D01*
X54976571Y-106717381D01*
X54881333Y-106669762D01*
X54833714Y-106574524D01*
X54833714Y-106479286D01*
X54881333Y-106384048D01*
X54976571Y-106336429D01*
X55214667Y-106336429D01*
X55309905Y-106288810D01*
X55786095Y-106717381D02*
X55786095Y-105717381D01*
X55881333Y-106336429D02*
X56167048Y-106717381D01*
X56167048Y-106050714D02*
X55786095Y-106431667D01*
X142490857Y-124350000D02*
X143348000Y-124350000D01*
X143519429Y-124407142D01*
X143633714Y-124521428D01*
X143690857Y-124692857D01*
X143690857Y-124807142D01*
X142890857Y-123264285D02*
X143690857Y-123264285D01*
X142433714Y-123549999D02*
X143290857Y-123835714D01*
X143290857Y-123092856D01*
X139823714Y-130727858D02*
X139880857Y-130556429D01*
X139880857Y-130270715D01*
X139823714Y-130156429D01*
X139766571Y-130099286D01*
X139652286Y-130042143D01*
X139538000Y-130042143D01*
X139423714Y-130099286D01*
X139366571Y-130156429D01*
X139309429Y-130270715D01*
X139252286Y-130499286D01*
X139195143Y-130613572D01*
X139138000Y-130670715D01*
X139023714Y-130727858D01*
X138909429Y-130727858D01*
X138795143Y-130670715D01*
X138738000Y-130613572D01*
X138680857Y-130499286D01*
X138680857Y-130213572D01*
X138738000Y-130042143D01*
X139080857Y-129699286D02*
X139080857Y-129242143D01*
X138680857Y-129527858D02*
X139709429Y-129527858D01*
X139823714Y-129470715D01*
X139880857Y-129356429D01*
X139880857Y-129242143D01*
X139880857Y-128842144D02*
X139080857Y-128842144D01*
X138680857Y-128842144D02*
X138738000Y-128899287D01*
X138795143Y-128842144D01*
X138738000Y-128785001D01*
X138680857Y-128842144D01*
X138795143Y-128842144D01*
X139823714Y-127756429D02*
X139880857Y-127870715D01*
X139880857Y-128099286D01*
X139823714Y-128213572D01*
X139766571Y-128270715D01*
X139652286Y-128327858D01*
X139309429Y-128327858D01*
X139195143Y-128270715D01*
X139138000Y-128213572D01*
X139080857Y-128099286D01*
X139080857Y-127870715D01*
X139138000Y-127756429D01*
X139880857Y-127242144D02*
X138680857Y-127242144D01*
X139423714Y-127127858D02*
X139880857Y-126785001D01*
X139080857Y-126785001D02*
X139538000Y-127242144D01*
X139880857Y-124785000D02*
X139880857Y-125356429D01*
X138680857Y-125356429D01*
X138623714Y-123527857D02*
X140166571Y-124556428D01*
X139880857Y-122442142D02*
X139309429Y-122842142D01*
X139880857Y-123127857D02*
X138680857Y-123127857D01*
X138680857Y-122670714D01*
X138738000Y-122556428D01*
X138795143Y-122499285D01*
X138909429Y-122442142D01*
X139080857Y-122442142D01*
X139195143Y-122499285D01*
X139252286Y-122556428D01*
X139309429Y-122670714D01*
X139309429Y-123127857D01*
D12*
X106853714Y-123754999D02*
X106925143Y-123826428D01*
X106996571Y-124040714D01*
X106996571Y-124183571D01*
X106925143Y-124397856D01*
X106782286Y-124540714D01*
X106639429Y-124612142D01*
X106353714Y-124683571D01*
X106139429Y-124683571D01*
X105853714Y-124612142D01*
X105710857Y-124540714D01*
X105568000Y-124397856D01*
X105496571Y-124183571D01*
X105496571Y-124040714D01*
X105568000Y-123826428D01*
X105639429Y-123754999D01*
X106996571Y-122326428D02*
X106996571Y-123183571D01*
X106996571Y-122754999D02*
X105496571Y-122754999D01*
X105710857Y-122897856D01*
X105853714Y-123040714D01*
X105925143Y-123183571D01*
X120601571Y-127540713D02*
X120601571Y-126469284D01*
X119958714Y-127112141D02*
X121887286Y-127540713D01*
X121244429Y-126612141D02*
X121244429Y-127683570D01*
X121887286Y-127040713D02*
X119958714Y-126612141D01*
X120244429Y-126040713D02*
X120173000Y-125969284D01*
X120101571Y-125826427D01*
X120101571Y-125469284D01*
X120173000Y-125326427D01*
X120244429Y-125254998D01*
X120387286Y-125183570D01*
X120530143Y-125183570D01*
X120744429Y-125254998D01*
X121601571Y-126112141D01*
X121601571Y-125183570D01*
X120101571Y-124683570D02*
X120101571Y-123683570D01*
X121601571Y-124326427D01*
X120744429Y-122897856D02*
X120673000Y-123040714D01*
X120601571Y-123112142D01*
X120458714Y-123183571D01*
X120387286Y-123183571D01*
X120244429Y-123112142D01*
X120173000Y-123040714D01*
X120101571Y-122897856D01*
X120101571Y-122612142D01*
X120173000Y-122469285D01*
X120244429Y-122397856D01*
X120387286Y-122326428D01*
X120458714Y-122326428D01*
X120601571Y-122397856D01*
X120673000Y-122469285D01*
X120744429Y-122612142D01*
X120744429Y-122897856D01*
X120815857Y-123040714D01*
X120887286Y-123112142D01*
X121030143Y-123183571D01*
X121315857Y-123183571D01*
X121458714Y-123112142D01*
X121530143Y-123040714D01*
X121601571Y-122897856D01*
X121601571Y-122612142D01*
X121530143Y-122469285D01*
X121458714Y-122397856D01*
X121315857Y-122326428D01*
X121030143Y-122326428D01*
X120887286Y-122397856D01*
X120815857Y-122469285D01*
X120744429Y-122612142D01*
X120101571Y-121397857D02*
X120101571Y-121255000D01*
X120173000Y-121112143D01*
X120244429Y-121040714D01*
X120387286Y-120969285D01*
X120673000Y-120897857D01*
X121030143Y-120897857D01*
X121315857Y-120969285D01*
X121458714Y-121040714D01*
X121530143Y-121112143D01*
X121601571Y-121255000D01*
X121601571Y-121397857D01*
X121530143Y-121540714D01*
X121458714Y-121612143D01*
X121315857Y-121683571D01*
X121030143Y-121755000D01*
X120673000Y-121755000D01*
X120387286Y-121683571D01*
X120244429Y-121612143D01*
X120173000Y-121540714D01*
X120101571Y-121397857D01*
X120101571Y-119969286D02*
X120101571Y-119826429D01*
X120173000Y-119683572D01*
X120244429Y-119612143D01*
X120387286Y-119540714D01*
X120673000Y-119469286D01*
X121030143Y-119469286D01*
X121315857Y-119540714D01*
X121458714Y-119612143D01*
X121530143Y-119683572D01*
X121601571Y-119826429D01*
X121601571Y-119969286D01*
X121530143Y-120112143D01*
X121458714Y-120183572D01*
X121315857Y-120255000D01*
X121030143Y-120326429D01*
X120673000Y-120326429D01*
X120387286Y-120255000D01*
X120244429Y-120183572D01*
X120173000Y-120112143D01*
X120101571Y-119969286D01*
D11*
X112564905Y-141102381D02*
X112564905Y-140102381D01*
X112945858Y-140102381D01*
X113041096Y-140150000D01*
X113088715Y-140197619D01*
X113136334Y-140292857D01*
X113136334Y-140435714D01*
X113088715Y-140530952D01*
X113041096Y-140578571D01*
X112945858Y-140626190D01*
X112564905Y-140626190D01*
X114088715Y-141102381D02*
X113517286Y-141102381D01*
X113803000Y-141102381D02*
X113803000Y-140102381D01*
X113707762Y-140245238D01*
X113612524Y-140340476D01*
X113517286Y-140388095D01*
X135424905Y-141102381D02*
X135424905Y-140102381D01*
X135805858Y-140102381D01*
X135901096Y-140150000D01*
X135948715Y-140197619D01*
X135996334Y-140292857D01*
X135996334Y-140435714D01*
X135948715Y-140530952D01*
X135901096Y-140578571D01*
X135805858Y-140626190D01*
X135424905Y-140626190D01*
X136377286Y-140197619D02*
X136424905Y-140150000D01*
X136520143Y-140102381D01*
X136758239Y-140102381D01*
X136853477Y-140150000D01*
X136901096Y-140197619D01*
X136948715Y-140292857D01*
X136948715Y-140388095D01*
X136901096Y-140530952D01*
X136329667Y-141102381D01*
X136948715Y-141102381D01*
X103674905Y-99192381D02*
X103674905Y-98192381D01*
X104055858Y-98192381D01*
X104151096Y-98240000D01*
X104198715Y-98287619D01*
X104246334Y-98382857D01*
X104246334Y-98525714D01*
X104198715Y-98620952D01*
X104151096Y-98668571D01*
X104055858Y-98716190D01*
X103674905Y-98716190D01*
X104579667Y-98192381D02*
X105198715Y-98192381D01*
X104865381Y-98573333D01*
X105008239Y-98573333D01*
X105103477Y-98620952D01*
X105151096Y-98668571D01*
X105198715Y-98763810D01*
X105198715Y-99001905D01*
X105151096Y-99097143D01*
X105103477Y-99144762D01*
X105008239Y-99192381D01*
X104722524Y-99192381D01*
X104627286Y-99144762D01*
X104579667Y-99097143D01*
X130979905Y-99192381D02*
X130979905Y-98192381D01*
X131360858Y-98192381D01*
X131456096Y-98240000D01*
X131503715Y-98287619D01*
X131551334Y-98382857D01*
X131551334Y-98525714D01*
X131503715Y-98620952D01*
X131456096Y-98668571D01*
X131360858Y-98716190D01*
X130979905Y-98716190D01*
X132408477Y-98525714D02*
X132408477Y-99192381D01*
X132170381Y-98144762D02*
X131932286Y-98859048D01*
X132551334Y-98859048D01*
X150220381Y-101518333D02*
X150934667Y-101518333D01*
X151077524Y-101565953D01*
X151172762Y-101661191D01*
X151220381Y-101804048D01*
X151220381Y-101899286D01*
X151220381Y-100518333D02*
X151220381Y-101089762D01*
X151220381Y-100804048D02*
X150220381Y-100804048D01*
X150363238Y-100899286D01*
X150458476Y-100994524D01*
X150506095Y-101089762D01*
X140060381Y-102494524D02*
X140869905Y-102494524D01*
X140965143Y-102446905D01*
X141012762Y-102399286D01*
X141060381Y-102304048D01*
X141060381Y-102113571D01*
X141012762Y-102018333D01*
X140965143Y-101970714D01*
X140869905Y-101923095D01*
X140060381Y-101923095D01*
X140012762Y-100732619D02*
X141298476Y-101589762D01*
X141060381Y-100399286D02*
X140060381Y-100399286D01*
X140060381Y-100161191D01*
X140108000Y-100018333D01*
X140203238Y-99923095D01*
X140298476Y-99875476D01*
X140488952Y-99827857D01*
X140631810Y-99827857D01*
X140822286Y-99875476D01*
X140917524Y-99923095D01*
X141012762Y-100018333D01*
X141060381Y-100161191D01*
X141060381Y-100399286D01*
X150220381Y-137078333D02*
X150934667Y-137078333D01*
X151077524Y-137125953D01*
X151172762Y-137221191D01*
X151220381Y-137364048D01*
X151220381Y-137459286D01*
X150315619Y-136649762D02*
X150268000Y-136602143D01*
X150220381Y-136506905D01*
X150220381Y-136268809D01*
X150268000Y-136173571D01*
X150315619Y-136125952D01*
X150410857Y-136078333D01*
X150506095Y-136078333D01*
X150648952Y-136125952D01*
X151220381Y-136697381D01*
X151220381Y-136078333D01*
X141060381Y-137459285D02*
X141060381Y-137935476D01*
X140060381Y-137935476D01*
X140012762Y-136411666D02*
X141298476Y-137268809D01*
X141060381Y-135506904D02*
X140584190Y-135840238D01*
X141060381Y-136078333D02*
X140060381Y-136078333D01*
X140060381Y-135697380D01*
X140108000Y-135602142D01*
X140155619Y-135554523D01*
X140250857Y-135506904D01*
X140393714Y-135506904D01*
X140488952Y-135554523D01*
X140536571Y-135602142D01*
X140584190Y-135697380D01*
X140584190Y-136078333D01*
X142490857Y-109110000D02*
X143348000Y-109110000D01*
X143519429Y-109167142D01*
X143633714Y-109281428D01*
X143690857Y-109452857D01*
X143690857Y-109567142D01*
X142490857Y-108652856D02*
X142490857Y-107909999D01*
X142948000Y-108309999D01*
X142948000Y-108138571D01*
X143005143Y-108024285D01*
X143062286Y-107967142D01*
X143176571Y-107909999D01*
X143462286Y-107909999D01*
X143576571Y-107967142D01*
X143633714Y-108024285D01*
X143690857Y-108138571D01*
X143690857Y-108481428D01*
X143633714Y-108595714D01*
X143576571Y-108652856D01*
X139823714Y-115630715D02*
X139880857Y-115459286D01*
X139880857Y-115173572D01*
X139823714Y-115059286D01*
X139766571Y-115002143D01*
X139652286Y-114945000D01*
X139538000Y-114945000D01*
X139423714Y-115002143D01*
X139366571Y-115059286D01*
X139309429Y-115173572D01*
X139252286Y-115402143D01*
X139195143Y-115516429D01*
X139138000Y-115573572D01*
X139023714Y-115630715D01*
X138909429Y-115630715D01*
X138795143Y-115573572D01*
X138738000Y-115516429D01*
X138680857Y-115402143D01*
X138680857Y-115116429D01*
X138738000Y-114945000D01*
X139080857Y-114602143D02*
X139080857Y-114145000D01*
X138680857Y-114430715D02*
X139709429Y-114430715D01*
X139823714Y-114373572D01*
X139880857Y-114259286D01*
X139880857Y-114145000D01*
X139880857Y-113745001D02*
X139080857Y-113745001D01*
X138680857Y-113745001D02*
X138738000Y-113802144D01*
X138795143Y-113745001D01*
X138738000Y-113687858D01*
X138680857Y-113745001D01*
X138795143Y-113745001D01*
X139823714Y-112659286D02*
X139880857Y-112773572D01*
X139880857Y-113002143D01*
X139823714Y-113116429D01*
X139766571Y-113173572D01*
X139652286Y-113230715D01*
X139309429Y-113230715D01*
X139195143Y-113173572D01*
X139138000Y-113116429D01*
X139080857Y-113002143D01*
X139080857Y-112773572D01*
X139138000Y-112659286D01*
X139880857Y-112145001D02*
X138680857Y-112145001D01*
X139423714Y-112030715D02*
X139880857Y-111687858D01*
X139080857Y-111687858D02*
X139538000Y-112145001D01*
X138680857Y-110259286D02*
X139652286Y-110259286D01*
X139766571Y-110202143D01*
X139823714Y-110145000D01*
X139880857Y-110030714D01*
X139880857Y-109802143D01*
X139823714Y-109687857D01*
X139766571Y-109630714D01*
X139652286Y-109573571D01*
X138680857Y-109573571D01*
X138623714Y-108145000D02*
X140166571Y-109173571D01*
X139880857Y-107745000D02*
X138680857Y-107745000D01*
X138680857Y-107459285D01*
X138738000Y-107287857D01*
X138852286Y-107173571D01*
X138966571Y-107116428D01*
X139195143Y-107059285D01*
X139366571Y-107059285D01*
X139595143Y-107116428D01*
X139709429Y-107173571D01*
X139823714Y-107287857D01*
X139880857Y-107459285D01*
X139880857Y-107745000D01*
X122494667Y-107507381D02*
X122494667Y-108221667D01*
X122447047Y-108364524D01*
X122351809Y-108459762D01*
X122208952Y-108507381D01*
X122113714Y-108507381D01*
X123447048Y-107507381D02*
X122970857Y-107507381D01*
X122923238Y-107983571D01*
X122970857Y-107935952D01*
X123066095Y-107888333D01*
X123304191Y-107888333D01*
X123399429Y-107935952D01*
X123447048Y-107983571D01*
X123494667Y-108078810D01*
X123494667Y-108316905D01*
X123447048Y-108412143D01*
X123399429Y-108459762D01*
X123304191Y-108507381D01*
X123066095Y-108507381D01*
X122970857Y-108459762D01*
X122923238Y-108412143D01*
X125772762Y-106970715D02*
X125820381Y-106827858D01*
X125820381Y-106589762D01*
X125772762Y-106494524D01*
X125725143Y-106446905D01*
X125629905Y-106399286D01*
X125534667Y-106399286D01*
X125439429Y-106446905D01*
X125391810Y-106494524D01*
X125344190Y-106589762D01*
X125296571Y-106780239D01*
X125248952Y-106875477D01*
X125201333Y-106923096D01*
X125106095Y-106970715D01*
X125010857Y-106970715D01*
X124915619Y-106923096D01*
X124868000Y-106875477D01*
X124820381Y-106780239D01*
X124820381Y-106542143D01*
X124868000Y-106399286D01*
X125772762Y-105589762D02*
X125820381Y-105685000D01*
X125820381Y-105875477D01*
X125772762Y-105970715D01*
X125677524Y-106018334D01*
X125296571Y-106018334D01*
X125201333Y-105970715D01*
X125153714Y-105875477D01*
X125153714Y-105685000D01*
X125201333Y-105589762D01*
X125296571Y-105542143D01*
X125391810Y-105542143D01*
X125487048Y-106018334D01*
X125820381Y-105113572D02*
X125153714Y-105113572D01*
X125344190Y-105113572D02*
X125248952Y-105065953D01*
X125201333Y-105018334D01*
X125153714Y-104923096D01*
X125153714Y-104827857D01*
X125153714Y-104589762D02*
X125820381Y-104351667D01*
X125153714Y-104113571D01*
X125820381Y-103589762D02*
X125772762Y-103685000D01*
X125725143Y-103732619D01*
X125629905Y-103780238D01*
X125344190Y-103780238D01*
X125248952Y-103732619D01*
X125201333Y-103685000D01*
X125153714Y-103589762D01*
X125153714Y-103446904D01*
X125201333Y-103351666D01*
X125248952Y-103304047D01*
X125344190Y-103256428D01*
X125629905Y-103256428D01*
X125725143Y-103304047D01*
X125772762Y-103351666D01*
X125820381Y-103446904D01*
X125820381Y-103589762D01*
X124820381Y-102065952D02*
X125629905Y-102065952D01*
X125725143Y-102018333D01*
X125772762Y-101970714D01*
X125820381Y-101875476D01*
X125820381Y-101684999D01*
X125772762Y-101589761D01*
X125725143Y-101542142D01*
X125629905Y-101494523D01*
X124820381Y-101494523D01*
X124772762Y-100304047D02*
X126058476Y-101161190D01*
X125820381Y-99970714D02*
X124820381Y-99970714D01*
X124820381Y-99732619D01*
X124868000Y-99589761D01*
X124963238Y-99494523D01*
X125058476Y-99446904D01*
X125248952Y-99399285D01*
X125391810Y-99399285D01*
X125582286Y-99446904D01*
X125677524Y-99494523D01*
X125772762Y-99589761D01*
X125820381Y-99732619D01*
X125820381Y-99970714D01*
X127574667Y-107507381D02*
X127574667Y-108221667D01*
X127527047Y-108364524D01*
X127431809Y-108459762D01*
X127288952Y-108507381D01*
X127193714Y-108507381D01*
X128479429Y-107507381D02*
X128288952Y-107507381D01*
X128193714Y-107555000D01*
X128146095Y-107602619D01*
X128050857Y-107745476D01*
X128003238Y-107935952D01*
X128003238Y-108316905D01*
X128050857Y-108412143D01*
X128098476Y-108459762D01*
X128193714Y-108507381D01*
X128384191Y-108507381D01*
X128479429Y-108459762D01*
X128527048Y-108412143D01*
X128574667Y-108316905D01*
X128574667Y-108078810D01*
X128527048Y-107983571D01*
X128479429Y-107935952D01*
X128384191Y-107888333D01*
X128193714Y-107888333D01*
X128098476Y-107935952D01*
X128050857Y-107983571D01*
X128003238Y-108078810D01*
X130852762Y-106851667D02*
X130900381Y-106708810D01*
X130900381Y-106470714D01*
X130852762Y-106375476D01*
X130805143Y-106327857D01*
X130709905Y-106280238D01*
X130614667Y-106280238D01*
X130519429Y-106327857D01*
X130471810Y-106375476D01*
X130424190Y-106470714D01*
X130376571Y-106661191D01*
X130328952Y-106756429D01*
X130281333Y-106804048D01*
X130186095Y-106851667D01*
X130090857Y-106851667D01*
X129995619Y-106804048D01*
X129948000Y-106756429D01*
X129900381Y-106661191D01*
X129900381Y-106423095D01*
X129948000Y-106280238D01*
X130852762Y-105470714D02*
X130900381Y-105565952D01*
X130900381Y-105756429D01*
X130852762Y-105851667D01*
X130757524Y-105899286D01*
X130376571Y-105899286D01*
X130281333Y-105851667D01*
X130233714Y-105756429D01*
X130233714Y-105565952D01*
X130281333Y-105470714D01*
X130376571Y-105423095D01*
X130471810Y-105423095D01*
X130567048Y-105899286D01*
X130900381Y-104994524D02*
X130233714Y-104994524D01*
X130424190Y-104994524D02*
X130328952Y-104946905D01*
X130281333Y-104899286D01*
X130233714Y-104804048D01*
X130233714Y-104708809D01*
X130233714Y-104470714D02*
X130900381Y-104232619D01*
X130233714Y-103994523D01*
X130900381Y-103470714D02*
X130852762Y-103565952D01*
X130805143Y-103613571D01*
X130709905Y-103661190D01*
X130424190Y-103661190D01*
X130328952Y-103613571D01*
X130281333Y-103565952D01*
X130233714Y-103470714D01*
X130233714Y-103327856D01*
X130281333Y-103232618D01*
X130328952Y-103184999D01*
X130424190Y-103137380D01*
X130709905Y-103137380D01*
X130805143Y-103184999D01*
X130852762Y-103232618D01*
X130900381Y-103327856D01*
X130900381Y-103470714D01*
X130900381Y-101470713D02*
X130900381Y-101946904D01*
X129900381Y-101946904D01*
X129852762Y-100423094D02*
X131138476Y-101280237D01*
X130900381Y-99518332D02*
X130424190Y-99851666D01*
X130900381Y-100089761D02*
X129900381Y-100089761D01*
X129900381Y-99708808D01*
X129948000Y-99613570D01*
X129995619Y-99565951D01*
X130090857Y-99518332D01*
X130233714Y-99518332D01*
X130328952Y-99565951D01*
X130376571Y-99613570D01*
X130424190Y-99708808D01*
X130424190Y-100089761D01*
X111064667Y-107507381D02*
X111064667Y-108221667D01*
X111017047Y-108364524D01*
X110921809Y-108459762D01*
X110778952Y-108507381D01*
X110683714Y-108507381D01*
X111445619Y-107507381D02*
X112112286Y-107507381D01*
X111683714Y-108507381D01*
X108000858Y-107955714D02*
X108000858Y-108622381D01*
X107572286Y-107955714D02*
X107572286Y-108479524D01*
X107619905Y-108574762D01*
X107715143Y-108622381D01*
X107858001Y-108622381D01*
X107953239Y-108574762D01*
X108000858Y-108527143D01*
X108477048Y-107955714D02*
X108477048Y-108622381D01*
X108477048Y-108050952D02*
X108524667Y-108003333D01*
X108619905Y-107955714D01*
X108762763Y-107955714D01*
X108858001Y-108003333D01*
X108905620Y-108098571D01*
X108905620Y-108622381D01*
X109381810Y-108622381D02*
X109381810Y-107955714D01*
X109381810Y-107622381D02*
X109334191Y-107670000D01*
X109381810Y-107717619D01*
X109429429Y-107670000D01*
X109381810Y-107622381D01*
X109381810Y-107717619D01*
X109762762Y-107955714D02*
X110000857Y-108622381D01*
X110238953Y-107955714D01*
X103976571Y-106717381D02*
X103976571Y-105717381D01*
X103976571Y-106098333D02*
X104071809Y-106050714D01*
X104262286Y-106050714D01*
X104357524Y-106098333D01*
X104405143Y-106145952D01*
X104452762Y-106241190D01*
X104452762Y-106526905D01*
X104405143Y-106622143D01*
X104357524Y-106669762D01*
X104262286Y-106717381D01*
X104071809Y-106717381D01*
X103976571Y-106669762D01*
X105309905Y-106717381D02*
X105309905Y-106193571D01*
X105262286Y-106098333D01*
X105167048Y-106050714D01*
X104976571Y-106050714D01*
X104881333Y-106098333D01*
X105309905Y-106669762D02*
X105214667Y-106717381D01*
X104976571Y-106717381D01*
X104881333Y-106669762D01*
X104833714Y-106574524D01*
X104833714Y-106479286D01*
X104881333Y-106384048D01*
X104976571Y-106336429D01*
X105214667Y-106336429D01*
X105309905Y-106288810D01*
X105786095Y-106717381D02*
X105786095Y-105717381D01*
X105881333Y-106336429D02*
X106167048Y-106717381D01*
X106167048Y-106050714D02*
X105786095Y-106431667D01*
X92490857Y-74350000D02*
X93348000Y-74350000D01*
X93519429Y-74407142D01*
X93633714Y-74521428D01*
X93690857Y-74692857D01*
X93690857Y-74807142D01*
X92890857Y-73264285D02*
X93690857Y-73264285D01*
X92433714Y-73549999D02*
X93290857Y-73835714D01*
X93290857Y-73092856D01*
X89823714Y-80727858D02*
X89880857Y-80556429D01*
X89880857Y-80270715D01*
X89823714Y-80156429D01*
X89766571Y-80099286D01*
X89652286Y-80042143D01*
X89538000Y-80042143D01*
X89423714Y-80099286D01*
X89366571Y-80156429D01*
X89309429Y-80270715D01*
X89252286Y-80499286D01*
X89195143Y-80613572D01*
X89138000Y-80670715D01*
X89023714Y-80727858D01*
X88909429Y-80727858D01*
X88795143Y-80670715D01*
X88738000Y-80613572D01*
X88680857Y-80499286D01*
X88680857Y-80213572D01*
X88738000Y-80042143D01*
X89080857Y-79699286D02*
X89080857Y-79242143D01*
X88680857Y-79527858D02*
X89709429Y-79527858D01*
X89823714Y-79470715D01*
X89880857Y-79356429D01*
X89880857Y-79242143D01*
X89880857Y-78842144D02*
X89080857Y-78842144D01*
X88680857Y-78842144D02*
X88738000Y-78899287D01*
X88795143Y-78842144D01*
X88738000Y-78785001D01*
X88680857Y-78842144D01*
X88795143Y-78842144D01*
X89823714Y-77756429D02*
X89880857Y-77870715D01*
X89880857Y-78099286D01*
X89823714Y-78213572D01*
X89766571Y-78270715D01*
X89652286Y-78327858D01*
X89309429Y-78327858D01*
X89195143Y-78270715D01*
X89138000Y-78213572D01*
X89080857Y-78099286D01*
X89080857Y-77870715D01*
X89138000Y-77756429D01*
X89880857Y-77242144D02*
X88680857Y-77242144D01*
X89423714Y-77127858D02*
X89880857Y-76785001D01*
X89080857Y-76785001D02*
X89538000Y-77242144D01*
X89880857Y-74785000D02*
X89880857Y-75356429D01*
X88680857Y-75356429D01*
X88623714Y-73527857D02*
X90166571Y-74556428D01*
X89880857Y-72442142D02*
X89309429Y-72842142D01*
X89880857Y-73127857D02*
X88680857Y-73127857D01*
X88680857Y-72670714D01*
X88738000Y-72556428D01*
X88795143Y-72499285D01*
X88909429Y-72442142D01*
X89080857Y-72442142D01*
X89195143Y-72499285D01*
X89252286Y-72556428D01*
X89309429Y-72670714D01*
X89309429Y-73127857D01*
D12*
X56853714Y-73754999D02*
X56925143Y-73826428D01*
X56996571Y-74040714D01*
X56996571Y-74183571D01*
X56925143Y-74397856D01*
X56782286Y-74540714D01*
X56639429Y-74612142D01*
X56353714Y-74683571D01*
X56139429Y-74683571D01*
X55853714Y-74612142D01*
X55710857Y-74540714D01*
X55568000Y-74397856D01*
X55496571Y-74183571D01*
X55496571Y-74040714D01*
X55568000Y-73826428D01*
X55639429Y-73754999D01*
X56996571Y-72326428D02*
X56996571Y-73183571D01*
X56996571Y-72754999D02*
X55496571Y-72754999D01*
X55710857Y-72897856D01*
X55853714Y-73040714D01*
X55925143Y-73183571D01*
X70601571Y-77540713D02*
X70601571Y-76469284D01*
X69958714Y-77112141D02*
X71887286Y-77540713D01*
X71244429Y-76612141D02*
X71244429Y-77683570D01*
X71887286Y-77040713D02*
X69958714Y-76612141D01*
X70244429Y-76040713D02*
X70173000Y-75969284D01*
X70101571Y-75826427D01*
X70101571Y-75469284D01*
X70173000Y-75326427D01*
X70244429Y-75254998D01*
X70387286Y-75183570D01*
X70530143Y-75183570D01*
X70744429Y-75254998D01*
X71601571Y-76112141D01*
X71601571Y-75183570D01*
X70101571Y-74683570D02*
X70101571Y-73683570D01*
X71601571Y-74326427D01*
X70744429Y-72897856D02*
X70673000Y-73040714D01*
X70601571Y-73112142D01*
X70458714Y-73183571D01*
X70387286Y-73183571D01*
X70244429Y-73112142D01*
X70173000Y-73040714D01*
X70101571Y-72897856D01*
X70101571Y-72612142D01*
X70173000Y-72469285D01*
X70244429Y-72397856D01*
X70387286Y-72326428D01*
X70458714Y-72326428D01*
X70601571Y-72397856D01*
X70673000Y-72469285D01*
X70744429Y-72612142D01*
X70744429Y-72897856D01*
X70815857Y-73040714D01*
X70887286Y-73112142D01*
X71030143Y-73183571D01*
X71315857Y-73183571D01*
X71458714Y-73112142D01*
X71530143Y-73040714D01*
X71601571Y-72897856D01*
X71601571Y-72612142D01*
X71530143Y-72469285D01*
X71458714Y-72397856D01*
X71315857Y-72326428D01*
X71030143Y-72326428D01*
X70887286Y-72397856D01*
X70815857Y-72469285D01*
X70744429Y-72612142D01*
X70101571Y-71397857D02*
X70101571Y-71255000D01*
X70173000Y-71112143D01*
X70244429Y-71040714D01*
X70387286Y-70969285D01*
X70673000Y-70897857D01*
X71030143Y-70897857D01*
X71315857Y-70969285D01*
X71458714Y-71040714D01*
X71530143Y-71112143D01*
X71601571Y-71255000D01*
X71601571Y-71397857D01*
X71530143Y-71540714D01*
X71458714Y-71612143D01*
X71315857Y-71683571D01*
X71030143Y-71755000D01*
X70673000Y-71755000D01*
X70387286Y-71683571D01*
X70244429Y-71612143D01*
X70173000Y-71540714D01*
X70101571Y-71397857D01*
X70101571Y-69969286D02*
X70101571Y-69826429D01*
X70173000Y-69683572D01*
X70244429Y-69612143D01*
X70387286Y-69540714D01*
X70673000Y-69469286D01*
X71030143Y-69469286D01*
X71315857Y-69540714D01*
X71458714Y-69612143D01*
X71530143Y-69683572D01*
X71601571Y-69826429D01*
X71601571Y-69969286D01*
X71530143Y-70112143D01*
X71458714Y-70183572D01*
X71315857Y-70255000D01*
X71030143Y-70326429D01*
X70673000Y-70326429D01*
X70387286Y-70255000D01*
X70244429Y-70183572D01*
X70173000Y-70112143D01*
X70101571Y-69969286D01*
D11*
X62564905Y-91102381D02*
X62564905Y-90102381D01*
X62945858Y-90102381D01*
X63041096Y-90150000D01*
X63088715Y-90197619D01*
X63136334Y-90292857D01*
X63136334Y-90435714D01*
X63088715Y-90530952D01*
X63041096Y-90578571D01*
X62945858Y-90626190D01*
X62564905Y-90626190D01*
X64088715Y-91102381D02*
X63517286Y-91102381D01*
X63803000Y-91102381D02*
X63803000Y-90102381D01*
X63707762Y-90245238D01*
X63612524Y-90340476D01*
X63517286Y-90388095D01*
X85424905Y-91102381D02*
X85424905Y-90102381D01*
X85805858Y-90102381D01*
X85901096Y-90150000D01*
X85948715Y-90197619D01*
X85996334Y-90292857D01*
X85996334Y-90435714D01*
X85948715Y-90530952D01*
X85901096Y-90578571D01*
X85805858Y-90626190D01*
X85424905Y-90626190D01*
X86377286Y-90197619D02*
X86424905Y-90150000D01*
X86520143Y-90102381D01*
X86758239Y-90102381D01*
X86853477Y-90150000D01*
X86901096Y-90197619D01*
X86948715Y-90292857D01*
X86948715Y-90388095D01*
X86901096Y-90530952D01*
X86329667Y-91102381D01*
X86948715Y-91102381D01*
X53674905Y-49192381D02*
X53674905Y-48192381D01*
X54055858Y-48192381D01*
X54151096Y-48240000D01*
X54198715Y-48287619D01*
X54246334Y-48382857D01*
X54246334Y-48525714D01*
X54198715Y-48620952D01*
X54151096Y-48668571D01*
X54055858Y-48716190D01*
X53674905Y-48716190D01*
X54579667Y-48192381D02*
X55198715Y-48192381D01*
X54865381Y-48573333D01*
X55008239Y-48573333D01*
X55103477Y-48620952D01*
X55151096Y-48668571D01*
X55198715Y-48763810D01*
X55198715Y-49001905D01*
X55151096Y-49097143D01*
X55103477Y-49144762D01*
X55008239Y-49192381D01*
X54722524Y-49192381D01*
X54627286Y-49144762D01*
X54579667Y-49097143D01*
X80979905Y-49192381D02*
X80979905Y-48192381D01*
X81360858Y-48192381D01*
X81456096Y-48240000D01*
X81503715Y-48287619D01*
X81551334Y-48382857D01*
X81551334Y-48525714D01*
X81503715Y-48620952D01*
X81456096Y-48668571D01*
X81360858Y-48716190D01*
X80979905Y-48716190D01*
X82408477Y-48525714D02*
X82408477Y-49192381D01*
X82170381Y-48144762D02*
X81932286Y-48859048D01*
X82551334Y-48859048D01*
X100220381Y-51518333D02*
X100934667Y-51518333D01*
X101077524Y-51565953D01*
X101172762Y-51661191D01*
X101220381Y-51804048D01*
X101220381Y-51899286D01*
X101220381Y-50518333D02*
X101220381Y-51089762D01*
X101220381Y-50804048D02*
X100220381Y-50804048D01*
X100363238Y-50899286D01*
X100458476Y-50994524D01*
X100506095Y-51089762D01*
X90060381Y-52494524D02*
X90869905Y-52494524D01*
X90965143Y-52446905D01*
X91012762Y-52399286D01*
X91060381Y-52304048D01*
X91060381Y-52113571D01*
X91012762Y-52018333D01*
X90965143Y-51970714D01*
X90869905Y-51923095D01*
X90060381Y-51923095D01*
X90012762Y-50732619D02*
X91298476Y-51589762D01*
X91060381Y-50399286D02*
X90060381Y-50399286D01*
X90060381Y-50161191D01*
X90108000Y-50018333D01*
X90203238Y-49923095D01*
X90298476Y-49875476D01*
X90488952Y-49827857D01*
X90631810Y-49827857D01*
X90822286Y-49875476D01*
X90917524Y-49923095D01*
X91012762Y-50018333D01*
X91060381Y-50161191D01*
X91060381Y-50399286D01*
X100220381Y-87078333D02*
X100934667Y-87078333D01*
X101077524Y-87125953D01*
X101172762Y-87221191D01*
X101220381Y-87364048D01*
X101220381Y-87459286D01*
X100315619Y-86649762D02*
X100268000Y-86602143D01*
X100220381Y-86506905D01*
X100220381Y-86268809D01*
X100268000Y-86173571D01*
X100315619Y-86125952D01*
X100410857Y-86078333D01*
X100506095Y-86078333D01*
X100648952Y-86125952D01*
X101220381Y-86697381D01*
X101220381Y-86078333D01*
X91060381Y-87459285D02*
X91060381Y-87935476D01*
X90060381Y-87935476D01*
X90012762Y-86411666D02*
X91298476Y-87268809D01*
X91060381Y-85506904D02*
X90584190Y-85840238D01*
X91060381Y-86078333D02*
X90060381Y-86078333D01*
X90060381Y-85697380D01*
X90108000Y-85602142D01*
X90155619Y-85554523D01*
X90250857Y-85506904D01*
X90393714Y-85506904D01*
X90488952Y-85554523D01*
X90536571Y-85602142D01*
X90584190Y-85697380D01*
X90584190Y-86078333D01*
X92490857Y-59110000D02*
X93348000Y-59110000D01*
X93519429Y-59167142D01*
X93633714Y-59281428D01*
X93690857Y-59452857D01*
X93690857Y-59567142D01*
X92490857Y-58652856D02*
X92490857Y-57909999D01*
X92948000Y-58309999D01*
X92948000Y-58138571D01*
X93005143Y-58024285D01*
X93062286Y-57967142D01*
X93176571Y-57909999D01*
X93462286Y-57909999D01*
X93576571Y-57967142D01*
X93633714Y-58024285D01*
X93690857Y-58138571D01*
X93690857Y-58481428D01*
X93633714Y-58595714D01*
X93576571Y-58652856D01*
X89823714Y-65630715D02*
X89880857Y-65459286D01*
X89880857Y-65173572D01*
X89823714Y-65059286D01*
X89766571Y-65002143D01*
X89652286Y-64945000D01*
X89538000Y-64945000D01*
X89423714Y-65002143D01*
X89366571Y-65059286D01*
X89309429Y-65173572D01*
X89252286Y-65402143D01*
X89195143Y-65516429D01*
X89138000Y-65573572D01*
X89023714Y-65630715D01*
X88909429Y-65630715D01*
X88795143Y-65573572D01*
X88738000Y-65516429D01*
X88680857Y-65402143D01*
X88680857Y-65116429D01*
X88738000Y-64945000D01*
X89080857Y-64602143D02*
X89080857Y-64145000D01*
X88680857Y-64430715D02*
X89709429Y-64430715D01*
X89823714Y-64373572D01*
X89880857Y-64259286D01*
X89880857Y-64145000D01*
X89880857Y-63745001D02*
X89080857Y-63745001D01*
X88680857Y-63745001D02*
X88738000Y-63802144D01*
X88795143Y-63745001D01*
X88738000Y-63687858D01*
X88680857Y-63745001D01*
X88795143Y-63745001D01*
X89823714Y-62659286D02*
X89880857Y-62773572D01*
X89880857Y-63002143D01*
X89823714Y-63116429D01*
X89766571Y-63173572D01*
X89652286Y-63230715D01*
X89309429Y-63230715D01*
X89195143Y-63173572D01*
X89138000Y-63116429D01*
X89080857Y-63002143D01*
X89080857Y-62773572D01*
X89138000Y-62659286D01*
X89880857Y-62145001D02*
X88680857Y-62145001D01*
X89423714Y-62030715D02*
X89880857Y-61687858D01*
X89080857Y-61687858D02*
X89538000Y-62145001D01*
X88680857Y-60259286D02*
X89652286Y-60259286D01*
X89766571Y-60202143D01*
X89823714Y-60145000D01*
X89880857Y-60030714D01*
X89880857Y-59802143D01*
X89823714Y-59687857D01*
X89766571Y-59630714D01*
X89652286Y-59573571D01*
X88680857Y-59573571D01*
X88623714Y-58145000D02*
X90166571Y-59173571D01*
X89880857Y-57745000D02*
X88680857Y-57745000D01*
X88680857Y-57459285D01*
X88738000Y-57287857D01*
X88852286Y-57173571D01*
X88966571Y-57116428D01*
X89195143Y-57059285D01*
X89366571Y-57059285D01*
X89595143Y-57116428D01*
X89709429Y-57173571D01*
X89823714Y-57287857D01*
X89880857Y-57459285D01*
X89880857Y-57745000D01*
X72494667Y-57507381D02*
X72494667Y-58221667D01*
X72447047Y-58364524D01*
X72351809Y-58459762D01*
X72208952Y-58507381D01*
X72113714Y-58507381D01*
X73447048Y-57507381D02*
X72970857Y-57507381D01*
X72923238Y-57983571D01*
X72970857Y-57935952D01*
X73066095Y-57888333D01*
X73304191Y-57888333D01*
X73399429Y-57935952D01*
X73447048Y-57983571D01*
X73494667Y-58078810D01*
X73494667Y-58316905D01*
X73447048Y-58412143D01*
X73399429Y-58459762D01*
X73304191Y-58507381D01*
X73066095Y-58507381D01*
X72970857Y-58459762D01*
X72923238Y-58412143D01*
X75772762Y-56970715D02*
X75820381Y-56827858D01*
X75820381Y-56589762D01*
X75772762Y-56494524D01*
X75725143Y-56446905D01*
X75629905Y-56399286D01*
X75534667Y-56399286D01*
X75439429Y-56446905D01*
X75391810Y-56494524D01*
X75344190Y-56589762D01*
X75296571Y-56780239D01*
X75248952Y-56875477D01*
X75201333Y-56923096D01*
X75106095Y-56970715D01*
X75010857Y-56970715D01*
X74915619Y-56923096D01*
X74868000Y-56875477D01*
X74820381Y-56780239D01*
X74820381Y-56542143D01*
X74868000Y-56399286D01*
X75772762Y-55589762D02*
X75820381Y-55685000D01*
X75820381Y-55875477D01*
X75772762Y-55970715D01*
X75677524Y-56018334D01*
X75296571Y-56018334D01*
X75201333Y-55970715D01*
X75153714Y-55875477D01*
X75153714Y-55685000D01*
X75201333Y-55589762D01*
X75296571Y-55542143D01*
X75391810Y-55542143D01*
X75487048Y-56018334D01*
X75820381Y-55113572D02*
X75153714Y-55113572D01*
X75344190Y-55113572D02*
X75248952Y-55065953D01*
X75201333Y-55018334D01*
X75153714Y-54923096D01*
X75153714Y-54827857D01*
X75153714Y-54589762D02*
X75820381Y-54351667D01*
X75153714Y-54113571D01*
X75820381Y-53589762D02*
X75772762Y-53685000D01*
X75725143Y-53732619D01*
X75629905Y-53780238D01*
X75344190Y-53780238D01*
X75248952Y-53732619D01*
X75201333Y-53685000D01*
X75153714Y-53589762D01*
X75153714Y-53446904D01*
X75201333Y-53351666D01*
X75248952Y-53304047D01*
X75344190Y-53256428D01*
X75629905Y-53256428D01*
X75725143Y-53304047D01*
X75772762Y-53351666D01*
X75820381Y-53446904D01*
X75820381Y-53589762D01*
X74820381Y-52065952D02*
X75629905Y-52065952D01*
X75725143Y-52018333D01*
X75772762Y-51970714D01*
X75820381Y-51875476D01*
X75820381Y-51684999D01*
X75772762Y-51589761D01*
X75725143Y-51542142D01*
X75629905Y-51494523D01*
X74820381Y-51494523D01*
X74772762Y-50304047D02*
X76058476Y-51161190D01*
X75820381Y-49970714D02*
X74820381Y-49970714D01*
X74820381Y-49732619D01*
X74868000Y-49589761D01*
X74963238Y-49494523D01*
X75058476Y-49446904D01*
X75248952Y-49399285D01*
X75391810Y-49399285D01*
X75582286Y-49446904D01*
X75677524Y-49494523D01*
X75772762Y-49589761D01*
X75820381Y-49732619D01*
X75820381Y-49970714D01*
X77574667Y-57507381D02*
X77574667Y-58221667D01*
X77527047Y-58364524D01*
X77431809Y-58459762D01*
X77288952Y-58507381D01*
X77193714Y-58507381D01*
X78479429Y-57507381D02*
X78288952Y-57507381D01*
X78193714Y-57555000D01*
X78146095Y-57602619D01*
X78050857Y-57745476D01*
X78003238Y-57935952D01*
X78003238Y-58316905D01*
X78050857Y-58412143D01*
X78098476Y-58459762D01*
X78193714Y-58507381D01*
X78384191Y-58507381D01*
X78479429Y-58459762D01*
X78527048Y-58412143D01*
X78574667Y-58316905D01*
X78574667Y-58078810D01*
X78527048Y-57983571D01*
X78479429Y-57935952D01*
X78384191Y-57888333D01*
X78193714Y-57888333D01*
X78098476Y-57935952D01*
X78050857Y-57983571D01*
X78003238Y-58078810D01*
X80852762Y-56851667D02*
X80900381Y-56708810D01*
X80900381Y-56470714D01*
X80852762Y-56375476D01*
X80805143Y-56327857D01*
X80709905Y-56280238D01*
X80614667Y-56280238D01*
X80519429Y-56327857D01*
X80471810Y-56375476D01*
X80424190Y-56470714D01*
X80376571Y-56661191D01*
X80328952Y-56756429D01*
X80281333Y-56804048D01*
X80186095Y-56851667D01*
X80090857Y-56851667D01*
X79995619Y-56804048D01*
X79948000Y-56756429D01*
X79900381Y-56661191D01*
X79900381Y-56423095D01*
X79948000Y-56280238D01*
X80852762Y-55470714D02*
X80900381Y-55565952D01*
X80900381Y-55756429D01*
X80852762Y-55851667D01*
X80757524Y-55899286D01*
X80376571Y-55899286D01*
X80281333Y-55851667D01*
X80233714Y-55756429D01*
X80233714Y-55565952D01*
X80281333Y-55470714D01*
X80376571Y-55423095D01*
X80471810Y-55423095D01*
X80567048Y-55899286D01*
X80900381Y-54994524D02*
X80233714Y-54994524D01*
X80424190Y-54994524D02*
X80328952Y-54946905D01*
X80281333Y-54899286D01*
X80233714Y-54804048D01*
X80233714Y-54708809D01*
X80233714Y-54470714D02*
X80900381Y-54232619D01*
X80233714Y-53994523D01*
X80900381Y-53470714D02*
X80852762Y-53565952D01*
X80805143Y-53613571D01*
X80709905Y-53661190D01*
X80424190Y-53661190D01*
X80328952Y-53613571D01*
X80281333Y-53565952D01*
X80233714Y-53470714D01*
X80233714Y-53327856D01*
X80281333Y-53232618D01*
X80328952Y-53184999D01*
X80424190Y-53137380D01*
X80709905Y-53137380D01*
X80805143Y-53184999D01*
X80852762Y-53232618D01*
X80900381Y-53327856D01*
X80900381Y-53470714D01*
X80900381Y-51470713D02*
X80900381Y-51946904D01*
X79900381Y-51946904D01*
X79852762Y-50423094D02*
X81138476Y-51280237D01*
X80900381Y-49518332D02*
X80424190Y-49851666D01*
X80900381Y-50089761D02*
X79900381Y-50089761D01*
X79900381Y-49708808D01*
X79948000Y-49613570D01*
X79995619Y-49565951D01*
X80090857Y-49518332D01*
X80233714Y-49518332D01*
X80328952Y-49565951D01*
X80376571Y-49613570D01*
X80424190Y-49708808D01*
X80424190Y-50089761D01*
X61064667Y-57507381D02*
X61064667Y-58221667D01*
X61017047Y-58364524D01*
X60921809Y-58459762D01*
X60778952Y-58507381D01*
X60683714Y-58507381D01*
X61445619Y-57507381D02*
X62112286Y-57507381D01*
X61683714Y-58507381D01*
X58000858Y-57955714D02*
X58000858Y-58622381D01*
X57572286Y-57955714D02*
X57572286Y-58479524D01*
X57619905Y-58574762D01*
X57715143Y-58622381D01*
X57858001Y-58622381D01*
X57953239Y-58574762D01*
X58000858Y-58527143D01*
X58477048Y-57955714D02*
X58477048Y-58622381D01*
X58477048Y-58050952D02*
X58524667Y-58003333D01*
X58619905Y-57955714D01*
X58762763Y-57955714D01*
X58858001Y-58003333D01*
X58905620Y-58098571D01*
X58905620Y-58622381D01*
X59381810Y-58622381D02*
X59381810Y-57955714D01*
X59381810Y-57622381D02*
X59334191Y-57670000D01*
X59381810Y-57717619D01*
X59429429Y-57670000D01*
X59381810Y-57622381D01*
X59381810Y-57717619D01*
X59762762Y-57955714D02*
X60000857Y-58622381D01*
X60238953Y-57955714D01*
X53976571Y-56717381D02*
X53976571Y-55717381D01*
X53976571Y-56098333D02*
X54071809Y-56050714D01*
X54262286Y-56050714D01*
X54357524Y-56098333D01*
X54405143Y-56145952D01*
X54452762Y-56241190D01*
X54452762Y-56526905D01*
X54405143Y-56622143D01*
X54357524Y-56669762D01*
X54262286Y-56717381D01*
X54071809Y-56717381D01*
X53976571Y-56669762D01*
X55309905Y-56717381D02*
X55309905Y-56193571D01*
X55262286Y-56098333D01*
X55167048Y-56050714D01*
X54976571Y-56050714D01*
X54881333Y-56098333D01*
X55309905Y-56669762D02*
X55214667Y-56717381D01*
X54976571Y-56717381D01*
X54881333Y-56669762D01*
X54833714Y-56574524D01*
X54833714Y-56479286D01*
X54881333Y-56384048D01*
X54976571Y-56336429D01*
X55214667Y-56336429D01*
X55309905Y-56288810D01*
X55786095Y-56717381D02*
X55786095Y-55717381D01*
X55881333Y-56336429D02*
X56167048Y-56717381D01*
X56167048Y-56050714D02*
X55786095Y-56431667D01*
X142490857Y-74350000D02*
X143348000Y-74350000D01*
X143519429Y-74407142D01*
X143633714Y-74521428D01*
X143690857Y-74692857D01*
X143690857Y-74807142D01*
X142890857Y-73264285D02*
X143690857Y-73264285D01*
X142433714Y-73549999D02*
X143290857Y-73835714D01*
X143290857Y-73092856D01*
X139823714Y-80727858D02*
X139880857Y-80556429D01*
X139880857Y-80270715D01*
X139823714Y-80156429D01*
X139766571Y-80099286D01*
X139652286Y-80042143D01*
X139538000Y-80042143D01*
X139423714Y-80099286D01*
X139366571Y-80156429D01*
X139309429Y-80270715D01*
X139252286Y-80499286D01*
X139195143Y-80613572D01*
X139138000Y-80670715D01*
X139023714Y-80727858D01*
X138909429Y-80727858D01*
X138795143Y-80670715D01*
X138738000Y-80613572D01*
X138680857Y-80499286D01*
X138680857Y-80213572D01*
X138738000Y-80042143D01*
X139080857Y-79699286D02*
X139080857Y-79242143D01*
X138680857Y-79527858D02*
X139709429Y-79527858D01*
X139823714Y-79470715D01*
X139880857Y-79356429D01*
X139880857Y-79242143D01*
X139880857Y-78842144D02*
X139080857Y-78842144D01*
X138680857Y-78842144D02*
X138738000Y-78899287D01*
X138795143Y-78842144D01*
X138738000Y-78785001D01*
X138680857Y-78842144D01*
X138795143Y-78842144D01*
X139823714Y-77756429D02*
X139880857Y-77870715D01*
X139880857Y-78099286D01*
X139823714Y-78213572D01*
X139766571Y-78270715D01*
X139652286Y-78327858D01*
X139309429Y-78327858D01*
X139195143Y-78270715D01*
X139138000Y-78213572D01*
X139080857Y-78099286D01*
X139080857Y-77870715D01*
X139138000Y-77756429D01*
X139880857Y-77242144D02*
X138680857Y-77242144D01*
X139423714Y-77127858D02*
X139880857Y-76785001D01*
X139080857Y-76785001D02*
X139538000Y-77242144D01*
X139880857Y-74785000D02*
X139880857Y-75356429D01*
X138680857Y-75356429D01*
X138623714Y-73527857D02*
X140166571Y-74556428D01*
X139880857Y-72442142D02*
X139309429Y-72842142D01*
X139880857Y-73127857D02*
X138680857Y-73127857D01*
X138680857Y-72670714D01*
X138738000Y-72556428D01*
X138795143Y-72499285D01*
X138909429Y-72442142D01*
X139080857Y-72442142D01*
X139195143Y-72499285D01*
X139252286Y-72556428D01*
X139309429Y-72670714D01*
X139309429Y-73127857D01*
D12*
X106853714Y-73754999D02*
X106925143Y-73826428D01*
X106996571Y-74040714D01*
X106996571Y-74183571D01*
X106925143Y-74397856D01*
X106782286Y-74540714D01*
X106639429Y-74612142D01*
X106353714Y-74683571D01*
X106139429Y-74683571D01*
X105853714Y-74612142D01*
X105710857Y-74540714D01*
X105568000Y-74397856D01*
X105496571Y-74183571D01*
X105496571Y-74040714D01*
X105568000Y-73826428D01*
X105639429Y-73754999D01*
X106996571Y-72326428D02*
X106996571Y-73183571D01*
X106996571Y-72754999D02*
X105496571Y-72754999D01*
X105710857Y-72897856D01*
X105853714Y-73040714D01*
X105925143Y-73183571D01*
X120601571Y-77540713D02*
X120601571Y-76469284D01*
X119958714Y-77112141D02*
X121887286Y-77540713D01*
X121244429Y-76612141D02*
X121244429Y-77683570D01*
X121887286Y-77040713D02*
X119958714Y-76612141D01*
X120244429Y-76040713D02*
X120173000Y-75969284D01*
X120101571Y-75826427D01*
X120101571Y-75469284D01*
X120173000Y-75326427D01*
X120244429Y-75254998D01*
X120387286Y-75183570D01*
X120530143Y-75183570D01*
X120744429Y-75254998D01*
X121601571Y-76112141D01*
X121601571Y-75183570D01*
X120101571Y-74683570D02*
X120101571Y-73683570D01*
X121601571Y-74326427D01*
X120744429Y-72897856D02*
X120673000Y-73040714D01*
X120601571Y-73112142D01*
X120458714Y-73183571D01*
X120387286Y-73183571D01*
X120244429Y-73112142D01*
X120173000Y-73040714D01*
X120101571Y-72897856D01*
X120101571Y-72612142D01*
X120173000Y-72469285D01*
X120244429Y-72397856D01*
X120387286Y-72326428D01*
X120458714Y-72326428D01*
X120601571Y-72397856D01*
X120673000Y-72469285D01*
X120744429Y-72612142D01*
X120744429Y-72897856D01*
X120815857Y-73040714D01*
X120887286Y-73112142D01*
X121030143Y-73183571D01*
X121315857Y-73183571D01*
X121458714Y-73112142D01*
X121530143Y-73040714D01*
X121601571Y-72897856D01*
X121601571Y-72612142D01*
X121530143Y-72469285D01*
X121458714Y-72397856D01*
X121315857Y-72326428D01*
X121030143Y-72326428D01*
X120887286Y-72397856D01*
X120815857Y-72469285D01*
X120744429Y-72612142D01*
X120101571Y-71397857D02*
X120101571Y-71255000D01*
X120173000Y-71112143D01*
X120244429Y-71040714D01*
X120387286Y-70969285D01*
X120673000Y-70897857D01*
X121030143Y-70897857D01*
X121315857Y-70969285D01*
X121458714Y-71040714D01*
X121530143Y-71112143D01*
X121601571Y-71255000D01*
X121601571Y-71397857D01*
X121530143Y-71540714D01*
X121458714Y-71612143D01*
X121315857Y-71683571D01*
X121030143Y-71755000D01*
X120673000Y-71755000D01*
X120387286Y-71683571D01*
X120244429Y-71612143D01*
X120173000Y-71540714D01*
X120101571Y-71397857D01*
X120101571Y-69969286D02*
X120101571Y-69826429D01*
X120173000Y-69683572D01*
X120244429Y-69612143D01*
X120387286Y-69540714D01*
X120673000Y-69469286D01*
X121030143Y-69469286D01*
X121315857Y-69540714D01*
X121458714Y-69612143D01*
X121530143Y-69683572D01*
X121601571Y-69826429D01*
X121601571Y-69969286D01*
X121530143Y-70112143D01*
X121458714Y-70183572D01*
X121315857Y-70255000D01*
X121030143Y-70326429D01*
X120673000Y-70326429D01*
X120387286Y-70255000D01*
X120244429Y-70183572D01*
X120173000Y-70112143D01*
X120101571Y-69969286D01*
D11*
X112564905Y-91102381D02*
X112564905Y-90102381D01*
X112945858Y-90102381D01*
X113041096Y-90150000D01*
X113088715Y-90197619D01*
X113136334Y-90292857D01*
X113136334Y-90435714D01*
X113088715Y-90530952D01*
X113041096Y-90578571D01*
X112945858Y-90626190D01*
X112564905Y-90626190D01*
X114088715Y-91102381D02*
X113517286Y-91102381D01*
X113803000Y-91102381D02*
X113803000Y-90102381D01*
X113707762Y-90245238D01*
X113612524Y-90340476D01*
X113517286Y-90388095D01*
X135424905Y-91102381D02*
X135424905Y-90102381D01*
X135805858Y-90102381D01*
X135901096Y-90150000D01*
X135948715Y-90197619D01*
X135996334Y-90292857D01*
X135996334Y-90435714D01*
X135948715Y-90530952D01*
X135901096Y-90578571D01*
X135805858Y-90626190D01*
X135424905Y-90626190D01*
X136377286Y-90197619D02*
X136424905Y-90150000D01*
X136520143Y-90102381D01*
X136758239Y-90102381D01*
X136853477Y-90150000D01*
X136901096Y-90197619D01*
X136948715Y-90292857D01*
X136948715Y-90388095D01*
X136901096Y-90530952D01*
X136329667Y-91102381D01*
X136948715Y-91102381D01*
X103674905Y-49192381D02*
X103674905Y-48192381D01*
X104055858Y-48192381D01*
X104151096Y-48240000D01*
X104198715Y-48287619D01*
X104246334Y-48382857D01*
X104246334Y-48525714D01*
X104198715Y-48620952D01*
X104151096Y-48668571D01*
X104055858Y-48716190D01*
X103674905Y-48716190D01*
X104579667Y-48192381D02*
X105198715Y-48192381D01*
X104865381Y-48573333D01*
X105008239Y-48573333D01*
X105103477Y-48620952D01*
X105151096Y-48668571D01*
X105198715Y-48763810D01*
X105198715Y-49001905D01*
X105151096Y-49097143D01*
X105103477Y-49144762D01*
X105008239Y-49192381D01*
X104722524Y-49192381D01*
X104627286Y-49144762D01*
X104579667Y-49097143D01*
X130979905Y-49192381D02*
X130979905Y-48192381D01*
X131360858Y-48192381D01*
X131456096Y-48240000D01*
X131503715Y-48287619D01*
X131551334Y-48382857D01*
X131551334Y-48525714D01*
X131503715Y-48620952D01*
X131456096Y-48668571D01*
X131360858Y-48716190D01*
X130979905Y-48716190D01*
X132408477Y-48525714D02*
X132408477Y-49192381D01*
X132170381Y-48144762D02*
X131932286Y-48859048D01*
X132551334Y-48859048D01*
X150220381Y-51518333D02*
X150934667Y-51518333D01*
X151077524Y-51565953D01*
X151172762Y-51661191D01*
X151220381Y-51804048D01*
X151220381Y-51899286D01*
X151220381Y-50518333D02*
X151220381Y-51089762D01*
X151220381Y-50804048D02*
X150220381Y-50804048D01*
X150363238Y-50899286D01*
X150458476Y-50994524D01*
X150506095Y-51089762D01*
X140060381Y-52494524D02*
X140869905Y-52494524D01*
X140965143Y-52446905D01*
X141012762Y-52399286D01*
X141060381Y-52304048D01*
X141060381Y-52113571D01*
X141012762Y-52018333D01*
X140965143Y-51970714D01*
X140869905Y-51923095D01*
X140060381Y-51923095D01*
X140012762Y-50732619D02*
X141298476Y-51589762D01*
X141060381Y-50399286D02*
X140060381Y-50399286D01*
X140060381Y-50161191D01*
X140108000Y-50018333D01*
X140203238Y-49923095D01*
X140298476Y-49875476D01*
X140488952Y-49827857D01*
X140631810Y-49827857D01*
X140822286Y-49875476D01*
X140917524Y-49923095D01*
X141012762Y-50018333D01*
X141060381Y-50161191D01*
X141060381Y-50399286D01*
X150220381Y-87078333D02*
X150934667Y-87078333D01*
X151077524Y-87125953D01*
X151172762Y-87221191D01*
X151220381Y-87364048D01*
X151220381Y-87459286D01*
X150315619Y-86649762D02*
X150268000Y-86602143D01*
X150220381Y-86506905D01*
X150220381Y-86268809D01*
X150268000Y-86173571D01*
X150315619Y-86125952D01*
X150410857Y-86078333D01*
X150506095Y-86078333D01*
X150648952Y-86125952D01*
X151220381Y-86697381D01*
X151220381Y-86078333D01*
X141060381Y-87459285D02*
X141060381Y-87935476D01*
X140060381Y-87935476D01*
X140012762Y-86411666D02*
X141298476Y-87268809D01*
X141060381Y-85506904D02*
X140584190Y-85840238D01*
X141060381Y-86078333D02*
X140060381Y-86078333D01*
X140060381Y-85697380D01*
X140108000Y-85602142D01*
X140155619Y-85554523D01*
X140250857Y-85506904D01*
X140393714Y-85506904D01*
X140488952Y-85554523D01*
X140536571Y-85602142D01*
X140584190Y-85697380D01*
X140584190Y-86078333D01*
X142490857Y-59110000D02*
X143348000Y-59110000D01*
X143519429Y-59167142D01*
X143633714Y-59281428D01*
X143690857Y-59452857D01*
X143690857Y-59567142D01*
X142490857Y-58652856D02*
X142490857Y-57909999D01*
X142948000Y-58309999D01*
X142948000Y-58138571D01*
X143005143Y-58024285D01*
X143062286Y-57967142D01*
X143176571Y-57909999D01*
X143462286Y-57909999D01*
X143576571Y-57967142D01*
X143633714Y-58024285D01*
X143690857Y-58138571D01*
X143690857Y-58481428D01*
X143633714Y-58595714D01*
X143576571Y-58652856D01*
X139823714Y-65630715D02*
X139880857Y-65459286D01*
X139880857Y-65173572D01*
X139823714Y-65059286D01*
X139766571Y-65002143D01*
X139652286Y-64945000D01*
X139538000Y-64945000D01*
X139423714Y-65002143D01*
X139366571Y-65059286D01*
X139309429Y-65173572D01*
X139252286Y-65402143D01*
X139195143Y-65516429D01*
X139138000Y-65573572D01*
X139023714Y-65630715D01*
X138909429Y-65630715D01*
X138795143Y-65573572D01*
X138738000Y-65516429D01*
X138680857Y-65402143D01*
X138680857Y-65116429D01*
X138738000Y-64945000D01*
X139080857Y-64602143D02*
X139080857Y-64145000D01*
X138680857Y-64430715D02*
X139709429Y-64430715D01*
X139823714Y-64373572D01*
X139880857Y-64259286D01*
X139880857Y-64145000D01*
X139880857Y-63745001D02*
X139080857Y-63745001D01*
X138680857Y-63745001D02*
X138738000Y-63802144D01*
X138795143Y-63745001D01*
X138738000Y-63687858D01*
X138680857Y-63745001D01*
X138795143Y-63745001D01*
X139823714Y-62659286D02*
X139880857Y-62773572D01*
X139880857Y-63002143D01*
X139823714Y-63116429D01*
X139766571Y-63173572D01*
X139652286Y-63230715D01*
X139309429Y-63230715D01*
X139195143Y-63173572D01*
X139138000Y-63116429D01*
X139080857Y-63002143D01*
X139080857Y-62773572D01*
X139138000Y-62659286D01*
X139880857Y-62145001D02*
X138680857Y-62145001D01*
X139423714Y-62030715D02*
X139880857Y-61687858D01*
X139080857Y-61687858D02*
X139538000Y-62145001D01*
X138680857Y-60259286D02*
X139652286Y-60259286D01*
X139766571Y-60202143D01*
X139823714Y-60145000D01*
X139880857Y-60030714D01*
X139880857Y-59802143D01*
X139823714Y-59687857D01*
X139766571Y-59630714D01*
X139652286Y-59573571D01*
X138680857Y-59573571D01*
X138623714Y-58145000D02*
X140166571Y-59173571D01*
X139880857Y-57745000D02*
X138680857Y-57745000D01*
X138680857Y-57459285D01*
X138738000Y-57287857D01*
X138852286Y-57173571D01*
X138966571Y-57116428D01*
X139195143Y-57059285D01*
X139366571Y-57059285D01*
X139595143Y-57116428D01*
X139709429Y-57173571D01*
X139823714Y-57287857D01*
X139880857Y-57459285D01*
X139880857Y-57745000D01*
X122494667Y-57507381D02*
X122494667Y-58221667D01*
X122447047Y-58364524D01*
X122351809Y-58459762D01*
X122208952Y-58507381D01*
X122113714Y-58507381D01*
X123447048Y-57507381D02*
X122970857Y-57507381D01*
X122923238Y-57983571D01*
X122970857Y-57935952D01*
X123066095Y-57888333D01*
X123304191Y-57888333D01*
X123399429Y-57935952D01*
X123447048Y-57983571D01*
X123494667Y-58078810D01*
X123494667Y-58316905D01*
X123447048Y-58412143D01*
X123399429Y-58459762D01*
X123304191Y-58507381D01*
X123066095Y-58507381D01*
X122970857Y-58459762D01*
X122923238Y-58412143D01*
X125772762Y-56970715D02*
X125820381Y-56827858D01*
X125820381Y-56589762D01*
X125772762Y-56494524D01*
X125725143Y-56446905D01*
X125629905Y-56399286D01*
X125534667Y-56399286D01*
X125439429Y-56446905D01*
X125391810Y-56494524D01*
X125344190Y-56589762D01*
X125296571Y-56780239D01*
X125248952Y-56875477D01*
X125201333Y-56923096D01*
X125106095Y-56970715D01*
X125010857Y-56970715D01*
X124915619Y-56923096D01*
X124868000Y-56875477D01*
X124820381Y-56780239D01*
X124820381Y-56542143D01*
X124868000Y-56399286D01*
X125772762Y-55589762D02*
X125820381Y-55685000D01*
X125820381Y-55875477D01*
X125772762Y-55970715D01*
X125677524Y-56018334D01*
X125296571Y-56018334D01*
X125201333Y-55970715D01*
X125153714Y-55875477D01*
X125153714Y-55685000D01*
X125201333Y-55589762D01*
X125296571Y-55542143D01*
X125391810Y-55542143D01*
X125487048Y-56018334D01*
X125820381Y-55113572D02*
X125153714Y-55113572D01*
X125344190Y-55113572D02*
X125248952Y-55065953D01*
X125201333Y-55018334D01*
X125153714Y-54923096D01*
X125153714Y-54827857D01*
X125153714Y-54589762D02*
X125820381Y-54351667D01*
X125153714Y-54113571D01*
X125820381Y-53589762D02*
X125772762Y-53685000D01*
X125725143Y-53732619D01*
X125629905Y-53780238D01*
X125344190Y-53780238D01*
X125248952Y-53732619D01*
X125201333Y-53685000D01*
X125153714Y-53589762D01*
X125153714Y-53446904D01*
X125201333Y-53351666D01*
X125248952Y-53304047D01*
X125344190Y-53256428D01*
X125629905Y-53256428D01*
X125725143Y-53304047D01*
X125772762Y-53351666D01*
X125820381Y-53446904D01*
X125820381Y-53589762D01*
X124820381Y-52065952D02*
X125629905Y-52065952D01*
X125725143Y-52018333D01*
X125772762Y-51970714D01*
X125820381Y-51875476D01*
X125820381Y-51684999D01*
X125772762Y-51589761D01*
X125725143Y-51542142D01*
X125629905Y-51494523D01*
X124820381Y-51494523D01*
X124772762Y-50304047D02*
X126058476Y-51161190D01*
X125820381Y-49970714D02*
X124820381Y-49970714D01*
X124820381Y-49732619D01*
X124868000Y-49589761D01*
X124963238Y-49494523D01*
X125058476Y-49446904D01*
X125248952Y-49399285D01*
X125391810Y-49399285D01*
X125582286Y-49446904D01*
X125677524Y-49494523D01*
X125772762Y-49589761D01*
X125820381Y-49732619D01*
X125820381Y-49970714D01*
X127574667Y-57507381D02*
X127574667Y-58221667D01*
X127527047Y-58364524D01*
X127431809Y-58459762D01*
X127288952Y-58507381D01*
X127193714Y-58507381D01*
X128479429Y-57507381D02*
X128288952Y-57507381D01*
X128193714Y-57555000D01*
X128146095Y-57602619D01*
X128050857Y-57745476D01*
X128003238Y-57935952D01*
X128003238Y-58316905D01*
X128050857Y-58412143D01*
X128098476Y-58459762D01*
X128193714Y-58507381D01*
X128384191Y-58507381D01*
X128479429Y-58459762D01*
X128527048Y-58412143D01*
X128574667Y-58316905D01*
X128574667Y-58078810D01*
X128527048Y-57983571D01*
X128479429Y-57935952D01*
X128384191Y-57888333D01*
X128193714Y-57888333D01*
X128098476Y-57935952D01*
X128050857Y-57983571D01*
X128003238Y-58078810D01*
X130852762Y-56851667D02*
X130900381Y-56708810D01*
X130900381Y-56470714D01*
X130852762Y-56375476D01*
X130805143Y-56327857D01*
X130709905Y-56280238D01*
X130614667Y-56280238D01*
X130519429Y-56327857D01*
X130471810Y-56375476D01*
X130424190Y-56470714D01*
X130376571Y-56661191D01*
X130328952Y-56756429D01*
X130281333Y-56804048D01*
X130186095Y-56851667D01*
X130090857Y-56851667D01*
X129995619Y-56804048D01*
X129948000Y-56756429D01*
X129900381Y-56661191D01*
X129900381Y-56423095D01*
X129948000Y-56280238D01*
X130852762Y-55470714D02*
X130900381Y-55565952D01*
X130900381Y-55756429D01*
X130852762Y-55851667D01*
X130757524Y-55899286D01*
X130376571Y-55899286D01*
X130281333Y-55851667D01*
X130233714Y-55756429D01*
X130233714Y-55565952D01*
X130281333Y-55470714D01*
X130376571Y-55423095D01*
X130471810Y-55423095D01*
X130567048Y-55899286D01*
X130900381Y-54994524D02*
X130233714Y-54994524D01*
X130424190Y-54994524D02*
X130328952Y-54946905D01*
X130281333Y-54899286D01*
X130233714Y-54804048D01*
X130233714Y-54708809D01*
X130233714Y-54470714D02*
X130900381Y-54232619D01*
X130233714Y-53994523D01*
X130900381Y-53470714D02*
X130852762Y-53565952D01*
X130805143Y-53613571D01*
X130709905Y-53661190D01*
X130424190Y-53661190D01*
X130328952Y-53613571D01*
X130281333Y-53565952D01*
X130233714Y-53470714D01*
X130233714Y-53327856D01*
X130281333Y-53232618D01*
X130328952Y-53184999D01*
X130424190Y-53137380D01*
X130709905Y-53137380D01*
X130805143Y-53184999D01*
X130852762Y-53232618D01*
X130900381Y-53327856D01*
X130900381Y-53470714D01*
X130900381Y-51470713D02*
X130900381Y-51946904D01*
X129900381Y-51946904D01*
X129852762Y-50423094D02*
X131138476Y-51280237D01*
X130900381Y-49518332D02*
X130424190Y-49851666D01*
X130900381Y-50089761D02*
X129900381Y-50089761D01*
X129900381Y-49708808D01*
X129948000Y-49613570D01*
X129995619Y-49565951D01*
X130090857Y-49518332D01*
X130233714Y-49518332D01*
X130328952Y-49565951D01*
X130376571Y-49613570D01*
X130424190Y-49708808D01*
X130424190Y-50089761D01*
X111064667Y-57507381D02*
X111064667Y-58221667D01*
X111017047Y-58364524D01*
X110921809Y-58459762D01*
X110778952Y-58507381D01*
X110683714Y-58507381D01*
X111445619Y-57507381D02*
X112112286Y-57507381D01*
X111683714Y-58507381D01*
X108000858Y-57955714D02*
X108000858Y-58622381D01*
X107572286Y-57955714D02*
X107572286Y-58479524D01*
X107619905Y-58574762D01*
X107715143Y-58622381D01*
X107858001Y-58622381D01*
X107953239Y-58574762D01*
X108000858Y-58527143D01*
X108477048Y-57955714D02*
X108477048Y-58622381D01*
X108477048Y-58050952D02*
X108524667Y-58003333D01*
X108619905Y-57955714D01*
X108762763Y-57955714D01*
X108858001Y-58003333D01*
X108905620Y-58098571D01*
X108905620Y-58622381D01*
X109381810Y-58622381D02*
X109381810Y-57955714D01*
X109381810Y-57622381D02*
X109334191Y-57670000D01*
X109381810Y-57717619D01*
X109429429Y-57670000D01*
X109381810Y-57622381D01*
X109381810Y-57717619D01*
X109762762Y-57955714D02*
X110000857Y-58622381D01*
X110238953Y-57955714D01*
X103976571Y-56717381D02*
X103976571Y-55717381D01*
X103976571Y-56098333D02*
X104071809Y-56050714D01*
X104262286Y-56050714D01*
X104357524Y-56098333D01*
X104405143Y-56145952D01*
X104452762Y-56241190D01*
X104452762Y-56526905D01*
X104405143Y-56622143D01*
X104357524Y-56669762D01*
X104262286Y-56717381D01*
X104071809Y-56717381D01*
X103976571Y-56669762D01*
X105309905Y-56717381D02*
X105309905Y-56193571D01*
X105262286Y-56098333D01*
X105167048Y-56050714D01*
X104976571Y-56050714D01*
X104881333Y-56098333D01*
X105309905Y-56669762D02*
X105214667Y-56717381D01*
X104976571Y-56717381D01*
X104881333Y-56669762D01*
X104833714Y-56574524D01*
X104833714Y-56479286D01*
X104881333Y-56384048D01*
X104976571Y-56336429D01*
X105214667Y-56336429D01*
X105309905Y-56288810D01*
X105786095Y-56717381D02*
X105786095Y-55717381D01*
X105881333Y-56336429D02*
X106167048Y-56717381D01*
X106167048Y-56050714D02*
X105786095Y-56431667D01*
M02*
